<svg xmlns="http://www.w3.org/2000/svg" viewBox="0 0 15.48 19.67"><defs><style>.cls-1{fill:none;stroke:#000;stroke-miterlimit:10;stroke-width:0.59px;}</style></defs><g id="Layer_2" data-name="Layer 2"><g id="Layer_1-2" data-name="Layer 1"><path class="cls-1" d="M10,2.59A2.3,2.3,0,1,1,7.74.29,2.3,2.3,0,0,1,10,2.59Z"/><path class="cls-1" d="M15.19,7.05a1,1,0,0,1-1,1H10.63a.51.51,0,0,0-.5.49L10,11.64,10,13v5.74a.61.61,0,0,1-.61.62H8.7a.61.61,0,0,1-.61-.62V13.37a.37.37,0,0,0-.18-.32.51.51,0,0,0-.17,0,.31.31,0,0,0-.2.06.37.37,0,0,0-.15.31v1.3h0v4.07a.62.62,0,0,1-.62.62H6.12a.62.62,0,0,1-.62-.62V13l0-1.38L5.35,8.53A.51.51,0,0,0,4.85,8H1.33a1,1,0,0,1-1-1,1,1,0,0,1,.3-.7A1,1,0,0,1,1.29,6H14.16A1,1,0,0,1,15.19,7.05Z"/><line class="cls-1" x1="10.04" y1="11.64" x2="10.03" y2="11.64"/><line class="cls-1" x1="5.46" y1="11.64" x2="5.45" y2="11.64"/><line class="cls-1" x1="7.47" y1="14.69" x2="7.4" y2="14.69"/><line class="cls-1" x1="10.05" y1="14.69" x2="9.98" y2="14.69"/><line class="cls-1" x1="8.09" y1="14.69" x2="7.98" y2="14.69"/><line class="cls-1" x1="7.51" y1="18.37" x2="7.4" y2="18.37"/><line class="cls-1" x1="10.13" y1="18.37" x2="9.98" y2="18.37"/><line class="cls-1" x1="8.09" y1="18.37" x2="7.96" y2="18.37"/><line class="cls-1" x1="7.47" y1="15.62" x2="7.4" y2="15.62"/><line class="cls-1" x1="10.05" y1="15.62" x2="9.98" y2="15.62"/><line class="cls-1" x1="8.09" y1="15.62" x2="7.98" y2="15.62"/></g></g></svg>