<svg xmlns="http://www.w3.org/2000/svg" viewBox="0 0 13.99 19.79"><defs><style>.cls-1,.cls-2{fill:none;stroke:#000;stroke-width:0.59px;}.cls-1{stroke-linejoin:round;}.cls-2{stroke-miterlimit:10;}</style></defs><g id="Layer_2" data-name="Layer 2"><g id="Layer_1-2" data-name="Layer 1"><path class="cls-1" d="M13.7,6.48a7.14,7.14,0,0,1-2.52,5.61,4.37,4.37,0,0,0-1.6,3.41h0c0,.13-.05.17-.17.17H4.59a.17.17,0,0,1-.17-.17v0A4.45,4.45,0,0,0,2.75,12,6.7,6.7,0,0,1,.29,6.85,6.79,6.79,0,0,1,7,.29C10.35.29,13.7,3.12,13.7,6.48Z"/><line class="cls-2" x1="4.47" y1="16.63" x2="9.53" y2="16.63"/><line class="cls-2" x1="4.47" y1="17.58" x2="9.53" y2="17.58"/><line class="cls-2" x1="4.65" y1="18.54" x2="9.34" y2="18.54"/><line class="cls-2" x1="5.59" y1="19.49" x2="8.41" y2="19.49"/><path class="cls-2" d="M6.16,15.57l-2-7.27a.74.74,0,0,1,.6-1H9.24a.75.75,0,0,1,.61,1L7.9,15.57"/></g></g></svg>