<svg xmlns="http://www.w3.org/2000/svg" viewBox="0 0 13.66 14.62"><defs><style>.cls-1,.cls-2{fill:none;stroke:#000;stroke-miterlimit:10;stroke-width:0.59px;}.cls-1{stroke-linecap:round;}</style></defs><g id="Layer_2" data-name="Layer 2"><g id="Layer_1-2" data-name="Layer 1"><path class="cls-1" d="M6.76,12.55v0a1.54,1.54,0,0,1-.53,1.15,1.9,1.9,0,0,1-1.38.58,2,2,0,0,1-.57-.15.86.86,0,0,0-.5,0h0a1.4,1.4,0,0,1-.48.18,1.15,1.15,0,0,1-.26,0,2.57,2.57,0,0,1-.79-.1,1.48,1.48,0,0,1-.8-.67h0a2.52,2.52,0,0,1-.34-.6,2.08,2.08,0,0,1-.62-.85,2,2,0,0,1-.14-.69,2,2,0,0,1,.37-1.15h0A1.94,1.94,0,0,1,.68,8a2,2,0,0,1-.32-.79h0a1.66,1.66,0,0,1,0-.32A2,2,0,0,1,1,5.44v0A1.85,1.85,0,0,1,.8,4.62,2,2,0,0,1,1.94,2.8h0a2.61,2.61,0,0,1,.79-.25.91.91,0,0,1,0-.17A2.18,2.18,0,0,1,5,.29a2.76,2.76,0,0,1,.77.12A1.57,1.57,0,0,1,6.81,1.92"/><path class="cls-2" d="M12.25,13.41c.09-.15.17-.32.26-.51A3.06,3.06,0,0,1,12.25,13.41Z"/><path class="cls-1" d="M6.79,1.91a1.55,1.55,0,0,1,1-1.48A2.25,2.25,0,0,1,8.62.29,2.19,2.19,0,0,1,10.9,2.36a1,1,0,0,1,0,.17,2.25,2.25,0,0,1,1,.34h0a2,2,0,0,1,1,1.7,2,2,0,0,1-.17.8v0a2,2,0,0,1,.67,1.46,1.68,1.68,0,0,1-.05.45h0A1.9,1.9,0,0,1,13,8a2,2,0,0,1,.36,1.1A2,2,0,0,1,13,10.22l.06.1h0a2,2,0,0,1,.31,1,2,2,0,0,1-.22.9h0a2.12,2.12,0,0,1-.52.64c-.08.19-.17.36-.25.51a1.54,1.54,0,0,1-1,.85,2.74,2.74,0,0,1-.61.06,1.49,1.49,0,0,1-.43-.06,1.64,1.64,0,0,1-.4-.19.83.83,0,0,0-.56,0,2,2,0,0,1-.66.19,2,2,0,0,1-1.37-.52,1.57,1.57,0,0,1-.58-1.22h0V11.19h0"/><path class="cls-1" d="M9.82,14a1.79,1.79,0,0,1-.77-1.59"/><path class="cls-1" d="M13,12.26A1.71,1.71,0,0,1,11,13"/><path class="cls-1" d="M12.93,10.31a1.73,1.73,0,0,1,.25,1.61,1.33,1.33,0,0,1-.16.34"/><path class="cls-1" d="M12.12,9.73a1.78,1.78,0,0,1,.81.58"/><path class="cls-1" d="M13.17,7.29v0A1.72,1.72,0,0,1,11,8.37"/><path class="cls-1" d="M13.17,7.29a1.73,1.73,0,0,0-.62-1.93,1.76,1.76,0,0,0-.45-.24"/><path class="cls-1" d="M8.15,11.27a1.32,1.32,0,1,1,2.62.35"/><path class="cls-1" d="M11.2,6a1.32,1.32,0,1,1-2.58-.57"/><path class="cls-1" d="M7.93,3.82a1.32,1.32,0,0,1,1.77-2"/><path class="cls-1" d="M10,7.09A1.32,1.32,0,0,1,8.91,8.6"/><path class="cls-1" d="M5.28,11.37a1.33,1.33,0,0,0-2.63.34"/><path class="cls-1" d="M2.51,5.88A1.32,1.32,0,0,0,5.1,5.32"/><path class="cls-1" d="M5.52,3.92a1.32,1.32,0,0,0,.11-1.87,1.34,1.34,0,0,0-1.87-.11"/><path class="cls-1" d="M3.68,7A1.33,1.33,0,0,0,4.79,8.46"/><path class="cls-1" d="M8.11,12.44A1.43,1.43,0,0,1,6.74,11"/><path class="cls-1" d="M8.11,7.43c-.86,0-1.31-1-1.34-1.7"/><path class="cls-1" d="M5.38,9.33c.85,0,1.35-1,1.39-1.67"/><path class="cls-1" d="M9.29,4.72a1.71,1.71,0,0,1,2.44-1.91"/><path class="cls-1" d="M4.53,12.51a1.74,1.74,0,0,1-.83,1.65"/><path class="cls-1" d="M1.46,9.77A1.72,1.72,0,1,0,2.62,13"/><path class="cls-1" d="M2.6,8.39a1.71,1.71,0,0,1-2.2-1,.56.56,0,0,1,0-.12"/><path class="cls-1" d="M.36,7.24A1.71,1.71,0,0,1,1.43,5.16"/><path class="cls-1" d="M.87,4.07A1.72,1.72,0,0,1,1.94,2.81"/><path class="cls-1" d="M4.24,4.77a1.71,1.71,0,0,0-1.33-2,1.76,1.76,0,0,0-1,.07"/><line class="cls-1" x1="6.79" y1="1.82" x2="6.74" y2="11.2"/></g></g></svg>