<svg xmlns="http://www.w3.org/2000/svg" viewBox="0 0 19.04 20"><defs><style>.cls-1{fill:none;stroke:#000;stroke-miterlimit:10;stroke-width:0.59px;}</style></defs><g id="Layer_2" data-name="Layer 2"><g id="Layer_1-2" data-name="Layer 1"><rect class="cls-1" x="0.29" y="14.75" width="4.96" height="4.96"/><rect class="cls-1" x="3.67" y="7.58" width="4.96" height="4.96"/><rect class="cls-1" x="7.05" y="0.29" width="4.96" height="4.96"/><rect class="cls-1" x="10.43" y="7.58" width="4.96" height="4.96"/><rect class="cls-1" x="7.04" y="14.75" width="4.96" height="4.96"/><rect class="cls-1" x="13.79" y="14.75" width="4.96" height="4.96"/><polyline class="cls-1" points="9.52 5.4 9.52 6.5 6.16 6.5 6.16 7.32"/><polyline class="cls-1" points="12.91 7.32 12.89 6.5 9.52 6.5"/><polyline class="cls-1" points="6.14 12.54 6.14 13.64 2.78 13.64 2.78 14.71"/><polyline class="cls-1" points="9.53 14.71 9.52 13.64 6.14 13.64"/><polyline class="cls-1" points="12.9 12.54 12.9 13.64 9.53 13.64 9.53 14.71"/><polyline class="cls-1" points="16.29 14.71 16.27 13.64 12.9 13.64"/></g></g></svg>