<svg xmlns="http://www.w3.org/2000/svg" viewBox="0 0 21.05 17.18"><defs><style>.cls-1,.cls-2{fill:none;stroke:#000;stroke-width:0.59px;}.cls-1{stroke-linejoin:round;}.cls-2{stroke-miterlimit:10;}</style></defs><g id="Layer_2" data-name="Layer 2"><g id="Layer_1-2" data-name="Layer 1"><path class="cls-1" d="M16.63,11.71l-.08.08a.87.87,0,0,1-1.23,0L11.4,7.87l-.3.31L15,12.11a.87.87,0,0,1,0,1.23l-.08.08a.87.87,0,0,1-1.23,0L9.79,9.49l-.22.22,3.93,3.93a.87.87,0,0,1,0,1.23l-.08.08a.87.87,0,0,1-1.23,0l-.73-.73-.88-.88-2-2c-.13-.13-.27-.2-.28-.36h0a1.09,1.09,0,0,0-.13-.17l-.08-.08a.87.87,0,0,0-1.23,0L5.8,11.79l-.27-.27,1.06-1.06a.89.89,0,0,0,0-1.23L6.5,9.15a.87.87,0,0,0-1.23,0l-1,1L.29,6.28l6-6L11.79,3.1,8.45,6.42a1.47,1.47,0,0,0-.43,1,1.48,1.48,0,0,0,2.5,1L11,8.05l.3-.3,1.24-1.22.06-.07,4.17,4.17A.86.86,0,0,1,16.63,11.71Z"/><path class="cls-2" d="M9.69,13.57,8.14,15.12a.87.87,0,0,1-1.23,0L6.83,15a.87.87,0,0,1,0-1.23l1.55-1.55A.9.9,0,0,1,9.07,12l.88.88A.91.91,0,0,1,9.69,13.57Z"/><path class="cls-2" d="M11.22,15.09,9.67,16.64a.87.87,0,0,1-1.23,0l-.08-.09a.87.87,0,0,1,0-1.23l1.55-1.55a.89.89,0,0,1,.68-.25l.88.88A.88.88,0,0,1,11.22,15.09Z"/><path class="cls-1" d="M6.59,10.46,5.53,11.52,5,12a.86.86,0,0,1-1.22,0l-.09-.08a.87.87,0,0,1,0-1.23l.5-.5,1-1a.87.87,0,0,1,1.23,0l.09.08A.89.89,0,0,1,6.59,10.46Z"/><path class="cls-1" d="M8.17,12,6.62,13.59a.87.87,0,0,1-1.23,0l-.08-.08a.87.87,0,0,1,0-1.23l.49-.49,1.06-1.06a.87.87,0,0,1,1.23,0l.08.08A1.09,1.09,0,0,1,8.3,11,.87.87,0,0,1,8.17,12Z"/><path class="cls-1" d="M20.76,6.85l-3.52,3.77a.34.34,0,0,1-.49,0h0L12.58,6.46l-.06.07L11.28,7.75l-.3.3-.46.46a1.47,1.47,0,0,1-2.5-1,1.47,1.47,0,0,1,.43-1l2-2L14.4.5Z"/></g></g></svg>