<svg xmlns="http://www.w3.org/2000/svg" viewBox="0 0 40.11 40.11"><defs><style>.cls-1{fill:none;stroke:#366e63;stroke-miterlimit:10;stroke-width:2px;}.cls-2{fill:#366e63;}</style></defs><g id="Layer_2" data-name="Layer 2"><g id="Layer_1-2" data-name="Layer 1"><rect class="cls-1" x="1" y="1" width="38.11" height="38.11" rx="19.05"/><path class="cls-2" d="M14.89,19.23A5.07,5.07,0,0,1,14.83,17a5.65,5.65,0,0,1,1-2.17,16.87,16.87,0,0,1,3.86-3.43s-.11.51-.26,1.82a6,6,0,0,1,1.09-2.26,5.34,5.34,0,0,1,2.36-1.21s-.54,1.95-.51,2A6,6,0,0,1,24,9a5.39,5.39,0,0,1,1.43-.83,13.4,13.4,0,0,1,4.09-.84,13.36,13.36,0,0,0-1,1.62L30,7.68l-.46,1,1.54-1s0,.31-.7.86-2,1.45-3.54,2.4c-1.92,1.18-2.36,1.44-3.73,2.31a30.93,30.93,0,0,0-4.46,3.23,24.75,24.75,0,0,0-4.19,4.78,69.61,69.61,0,0,0-4.52,7.11c-.1.15-.22.05-.35,0s-.14-.23-.16-.31a7.18,7.18,0,0,1,.1-3.18c.08-.21.34-.72.34-.72s.15,1.8.17,1.8.19-2,.19-2,.2.88.48,1a7.34,7.34,0,0,1,.23-2.69,7.42,7.42,0,0,1,1-2.1,10.65,10.65,0,0,1,2.53-2.8,1.88,1.88,0,0,0,0,1.3A1.85,1.85,0,0,0,14.89,19.23Z"/><path class="cls-2" d="M9.61,29.08c0,.08.12.12.3.19s.35.13.44.09.24-.36.17-.71c.4-.68.77-1.29,1.27-2A47.35,47.35,0,0,1,16,20.69c.29-.32,1.12-1.32,1.76-2,.21-.21,1.05-1.06,1.68-1.66a37.33,37.33,0,0,1,4.81-3.79c.81-.54.7-.43,2.46-1.58,2.85-1.86,3.17-2.19,3.12-2.27s-.11,0-.41.05a1.49,1.49,0,0,0-.36.17c-.35.25-.8.56-1.33.91-.35.24-.73.5-1.18.79-.8.51-1.37.83-1.75,1.05-.23.14-1.58.93-3,1.95a27.76,27.76,0,0,0-2.83,2.23c-.27.24-1,.91-1.89,1.87a35.53,35.53,0,0,0-2.44,3c-.55.74-1.2,1.61-2,2.83-1,1.49-1.42,2.24-1.52,2.48A20.14,20.14,0,0,1,10,28.48a1,1,0,0,0-.26.25C9.67,28.81,9.56,29,9.61,29.08Z"/><rect class="cls-2" x="9.1" y="29.51" width="1.3" height="0.55" rx="0.25" transform="translate(12.31 -1.45) rotate(22.81)"/><path class="cls-2" d="M9.72,31.07a.89.89,0,0,1,.25-.45L9,30.2a1.06,1.06,0,0,1-.12.35c-.11.13-.17,0-.33.2a1.47,1.47,0,0,0-.23.36c-.1.19-.27.39,0,.64s.2.4.09,1c.4-.53.65-.63.84-.66s.18,0,.29-.08a.92.92,0,0,0,.21-.45C9.76,31.26,9.69,31.27,9.72,31.07Zm-.49.32-.1.22a.09.09,0,0,1-.12,0l-.21-.1a.08.08,0,0,1,0-.12l.1-.21a.08.08,0,0,1,.11,0l.22.1A.08.08,0,0,1,9.23,31.39Z"/><path class="cls-2" d="M10.93,28.37a2.22,2.22,0,0,0,.77-.07c.47-.14,1-.32,1.76-.59a21,21,0,0,0,4.17-1.95c0-.05-.74.32-1.88.61a11.69,11.69,0,0,1-3.13.36,9.22,9.22,0,0,1,.94-.36A8.75,8.75,0,0,1,15,26c.62-.09,2.1-.67,5.81-2.79a11.76,11.76,0,0,1-1.65.4,11,11,0,0,1-2.66.13,15.68,15.68,0,0,0,2.65-.48,14.39,14.39,0,0,0,2.92-1.16c1.45-.72,1.9-1.17,2.12-1.73a2.43,2.43,0,0,0,.15-.67l-1,.16a16.26,16.26,0,0,1-5.12-.24,22.15,22.15,0,0,0,4-.32,14.34,14.34,0,0,0,3.68-1.17,12.38,12.38,0,0,0,2.29-1.46l-1.34,0,1.82-.61-1.46-.06a4.28,4.28,0,0,0,1.21-.31,4.74,4.74,0,0,0,.83-.49,4.64,4.64,0,0,0,1.46-2.47L30,13a8.73,8.73,0,0,1-2.68.15c.31,0,.77-.12,1.33-.23a6.48,6.48,0,0,0,1.74-.48,3.55,3.55,0,0,0,1.21-1.14l-.83.14-1.44.24a9,9,0,0,1,1.24-.45c.71-.2,1.07-.21,1.24-.5s.16-.42-.05-.93a6.72,6.72,0,0,1-1.76.69c0-.06.28-.28,1.28-.88a1.53,1.53,0,0,0,.45-.39l.08-.13-.42-.57a.12.12,0,0,0-.17,0L31,8.64,30.62,9c-.31.29-.78.71-1.37,1.19a54.42,54.42,0,0,1-5,3.48,41.1,41.1,0,0,0-4.46,3.45,44.93,44.93,0,0,0-4.44,4.76,56.67,56.67,0,0,0-4.43,6.47Z"/></g></g></svg>