<svg xmlns="http://www.w3.org/2000/svg" viewBox="0 0 11.33 15.56"><g id="Layer_2" data-name="Layer 2"><g id="Layer_1-2" data-name="Layer 1"><path d="M10.75,4l-.06-.21A2.28,2.28,0,0,1,9.3,1.71a1.55,1.55,0,0,1,0-.22l0,0-.3,0A2.28,2.28,0,0,1,6.87.05L6.7,0A2.25,2.25,0,0,1,5.37.43,2.27,2.27,0,0,1,4,0L3.85.05a2.27,2.27,0,0,1-2,1.27h-.2l-.15.14a2.28,2.28,0,0,1,0,.26A2.26,2.26,0,0,1,.05,3.82C0,3.88,0,3.94,0,4A2.26,2.26,0,0,1,.47,5.39,2.21,2.21,0,0,1,0,6.77l0,.11A2.27,2.27,0,0,1,1.48,9a3,3,0,0,1,0,.31l.1.1A2.44,2.44,0,0,1,2,9.36,2.27,2.27,0,0,1,4.15,10.8h0a2.21,2.21,0,0,1,1.36-.46,2.23,2.23,0,0,1,1.28.4l.16,0A2.28,2.28,0,0,1,9.05,9.36h.18l.09-.09A2.64,2.64,0,0,1,9.3,9a2.27,2.27,0,0,1,1.41-2.1l0-.15a2.23,2.23,0,0,1-.46-1.36A2.26,2.26,0,0,1,10.75,4ZM5.37,8.29a2.91,2.91,0,1,1,2.91-2.9A2.91,2.91,0,0,1,5.37,8.29Z"/><path d="M1.41,10.55a1,1,0,0,0,.51.32c.27.08.39,0,.64.08s.2.15.44.34a3.82,3.82,0,0,0,.59.36,3,3,0,0,0,1.78.06c-.48,1.19-1,2.38-1.46,3.57a.45.45,0,0,1-.72.16l-1.08-1H.45A.45.45,0,0,1,0,13.78Z"/><path d="M9.92,10.55a1.07,1.07,0,0,1-.51.32c-.28.08-.39,0-.65.08s-.19.15-.43.34a4.56,4.56,0,0,1-.59.36A3.06,3.06,0,0,1,6,11.71c.49,1.19,1,2.38,1.46,3.57a.46.46,0,0,0,.73.16l1.08-1h1.66a.45.45,0,0,0,.41-.63C10.83,12.71,10.38,11.63,9.92,10.55Z"/></g></g></svg>