<svg xmlns="http://www.w3.org/2000/svg" viewBox="0 0 10.51 15.03"><g id="Layer_2" data-name="Layer 2"><g id="Layer_1-2" data-name="Layer 1"><path d="M8.91,6.21c1.32.16,1.91,1.44,1.45,4.09A6,6,0,0,1,4.83,15,4.94,4.94,0,0,1,0,10.24,1.82,1.82,0,0,1,.52,8.92c.31-.22.7-.15.92-.43S1,7.72,1.36,6.85a1.37,1.37,0,0,1,2.16-.53L1.94,1.75A1.32,1.32,0,0,1,2.75.07,1.68,1.68,0,0,1,3.18,0,1.32,1.32,0,0,1,4.43.89L6.07,5.62a0,0,0,0,0,.07,0L7.78.89A1.32,1.32,0,0,1,9,0a1.61,1.61,0,0,1,.43.07,1.33,1.33,0,0,1,.82,1.68"/></g></g></svg>