<svg xmlns="http://www.w3.org/2000/svg" viewBox="0 0 9.83 16.44"><defs><style>.cls-1{fill:none;stroke:#000;stroke-miterlimit:10;stroke-width:0.59px;}</style></defs><g id="Layer_2" data-name="Layer 2"><g id="Layer_1-2" data-name="Layer 1"><path class="cls-1" d="M.36,16.15v-2A6.18,6.18,0,0,0,1.9,10.7c0-.3,0-.58,0-.86H.29V8.16H1.56A13.52,13.52,0,0,1,.94,4.85c0-3,2.14-4.56,4.81-4.56a9.62,9.62,0,0,1,3.7.83L8.67,3.26a7,7,0,0,0-2.74-.6c-1.52,0-2.21.88-2.21,2.37A12.55,12.55,0,0,0,4.3,8.16H8.16V9.84H4.62c0,.28,0,.56,0,.86A5.15,5.15,0,0,1,3.24,14h6.1v2.19Z"/></g></g></svg>