<svg xmlns="http://www.w3.org/2000/svg" viewBox="0 0 174.28 48.36"><defs><style>.cls-1{fill:#fff;}</style></defs><g id="Layer_2" data-name="Layer 2"><g id="Layer_1-2" data-name="Layer 1"><path class="cls-1" d="M25.39,10.2c.56-1.27,1.12-2.54,1.69-3.81A23.61,23.61,0,0,0,23.49,4.6C22.35,4.15,13,.6,5.64,5.23A9.61,9.61,0,0,0,1.52,9.67a7.72,7.72,0,0,0-.43,5.17c.94,3,4,4.41,7.08,5.81a36.43,36.43,0,0,0,7.06,2,33.05,33.05,0,0,1,5.93,1.72c1.32.68,1.69,1.09,1.9,1.48a4,4,0,0,1-.21,3.59C20.91,33,13.29,32.29,12,32.16a22.08,22.08,0,0,1-9.71-3.38C1.55,30,.7,31.32,0,32.48a11,11,0,0,0,1,.64c5,3,9.4,3.73,14.79,3.48a18.42,18.42,0,0,0,6.86-1.37,10,10,0,0,0,4.44-3.17,8.14,8.14,0,0,0,1.58-6,7.93,7.93,0,0,0-3.34-5.26,12.79,12.79,0,0,0-3.95-1.5c-3.25-1-5.42-1.22-8.59-2a13.59,13.59,0,0,1-3.24-1C8.6,15.85,6.93,15,6.59,13.47,6.11,11.32,8.49,9.4,8.8,9.14a7.65,7.65,0,0,1,3.49-1.48,17,17,0,0,1,8.87.85A26,26,0,0,1,25.39,10.2Z"/><ellipse class="cls-1" cx="65.51" cy="4.35" rx="3.67" ry="3.11"/><rect class="cls-1" x="62.76" y="11.79" width="5.22" height="24.26"/><path class="cls-1" d="M138.88,43.91h-.13s0,0,0,0c-34.1-.16-68.19.15-102.29,0,0-3.57,0-7.6,0-11.17a15.32,15.32,0,0,0,16.26,2.62,12.39,12.39,0,0,0,5.86-4.73,12,12,0,0,0,1.7-5A13.16,13.16,0,0,0,58,16.85a13.66,13.66,0,0,0-8.44-5.2,17.72,17.72,0,0,0-9.06.56,7.41,7.41,0,0,0-3.55,2.37,9.53,9.53,0,0,0-.62,1l-.15-3.91-4.63.05V48.34c35.71-.07,71.42.07,107.13,0l.25,0c1.18,0,1.73-1,1.73-2.23S140.06,43.91,138.88,43.91ZM45.57,15.65c5.16,0,9.35,4,9.35,8.42s-4.19,8-9.35,8-9.36-3.58-9.36-8S40.4,15.65,45.57,15.65Z"/><path class="cls-1" d="M92.6,25.32h2l3.91,0a11.28,11.28,0,0,0,0-2.39c-.48-5.4-4.82-8.75-5.3-9.11-6.5-4.85-14.69-1.22-15.11-1a12.58,12.58,0,0,0-5.54,4.55A12.76,12.76,0,0,0,71.3,27.73c2,5.92,8.25,7.71,10.18,8.26a16.4,16.4,0,0,0,10.14-.28,15.87,15.87,0,0,0,5.3-3.24L94,29.38a13.75,13.75,0,0,1-2.3,1.45c-.67.34-6.38,3.08-11.35.37a8.3,8.3,0,0,1-3.52-3.33,6.72,6.72,0,0,1-.48-1,8.62,8.62,0,0,1-.42-1.59h.78ZM75.93,22c0-3.82,3.92-6.49,8.75-6.49s8.76,2.67,8.76,6.49Z"/><rect class="cls-1" x="101.2" y="2.21" width="5.35" height="34.05"/><path class="cls-1" d="M133.46,17.74c-1.18-3-3.91-4.42-5.22-5.1-3.87-2-10.72-1.49-17.83,2.09l2,3.44a17.65,17.65,0,0,1,3.26-1.6,15.42,15.42,0,0,1,5.35-1c2.09,0,3.67,0,5.1,1,2.36,1.68,2.5,4.9,2.52,5.53l-11.31.19a8,8,0,0,0-1.11.12,8.34,8.34,0,0,0-4.61,2.15,6.52,6.52,0,0,0-2,4.18c-.21,3.46,2.93,5.75,3.5,6.15,2.55,1.77,6.59,1.54,8.75,1.35A12.67,12.67,0,0,0,129,33.59v2.47l5,.12V19.64A7.16,7.16,0,0,0,133.46,17.74Zm-4.75,10.05c0,2.84-4.88,5.2-8.12,5.2h-.16c-3.1,0-5.66-1.59-5.66-3.5v-.08c0-2.27,1.53-4,4.46-4h9.48Z"/><path class="cls-1" d="M147,19.05a8.15,8.15,0,0,1-.1-3.62A9,9,0,0,1,148.59,12c1.94-2.77,6.17-5.49,6.17-5.49s-.17.82-.42,2.92c.53-1.36.71-2.53,1.74-3.61a8.45,8.45,0,0,1,3.77-1.94S159,7,159,7a9.77,9.77,0,0,1,2.61-4.31,8.84,8.84,0,0,1,2.3-1.32A20.83,20.83,0,0,1,170.47,0a22.3,22.3,0,0,0-1.65,2.59l2.34-2-.73,1.52L172.89.51s0,.5-1.12,1.37-3.2,2.32-5.67,3.84c-3.07,1.89-3.76,2.3-6,3.69A49.84,49.84,0,0,0,153,14.59a40,40,0,0,0-6.7,7.63,113.68,113.68,0,0,0-7.22,11.38c-.17.24-.36.07-.56,0a.6.6,0,0,1-.25-.5,11.42,11.42,0,0,1,.15-5.07c.12-.34.54-1.16.54-1.16s.24,2.87.28,2.87.3-3.18.3-3.18.32,1.41.77,1.62a11.56,11.56,0,0,1,.37-4.3,12.28,12.28,0,0,1,1.54-3.36A16.82,16.82,0,0,1,146.28,16a3,3,0,0,0,.05,2.09A2.82,2.82,0,0,0,147,19.05Z"/><path class="cls-1" d="M138.57,34.79c.05.14.19.19.48.3s.56.21.71.15.38-.58.27-1.13c.64-1.09,1.23-2.07,2-3.26,2.27-3.34,3.69-6.1,6.72-9.48.46-.51,1.79-2.11,2.82-3.14.33-.34,1.67-1.69,2.67-2.65A58,58,0,0,1,162,9.52c1.3-.88,1.11-.69,3.93-2.53,4.55-3,5.07-3.5,5-3.63s-.19-.07-.67.07a2,2,0,0,0-.57.29c-.56.39-1.28.89-2.12,1.45-.57.38-1.18.8-1.9,1.25-1.28.82-2.18,1.34-2.79,1.69-.37.22-2.52,1.48-4.84,3.11a47.76,47.76,0,0,0-4.52,3.57c-.43.38-1.6,1.46-3,3a56.75,56.75,0,0,0-3.92,4.82c-.88,1.17-1.91,2.56-3.15,4.51-1.51,2.39-2.26,3.58-2.43,4,0,0-1.6,2.65-1.8,2.77a1.76,1.76,0,0,0-.42.39C138.66,34.37,138.5,34.6,138.57,34.79Z"/><rect class="cls-1" x="137.76" y="35.49" width="2.08" height="0.88" rx="0.37" transform="translate(24.79 -51.01) rotate(22.81)"/><path class="cls-1" d="M138.76,38a1.35,1.35,0,0,1,.39-.72l-1.55-.67a1.94,1.94,0,0,1-.19.55c-.18.22-.27.07-.54.33a2.71,2.71,0,0,0-.37.57c-.15.3-.42.62,0,1s.32.63.14,1.65c.63-.83,1-1,1.34-1s.28,0,.46-.13a1.42,1.42,0,0,0,.34-.73C138.81,38.29,138.7,38.29,138.76,38Zm-.79.51-.17.35a.13.13,0,0,1-.18,0l-.34-.17a.14.14,0,0,1-.06-.18l.18-.34a.13.13,0,0,1,.17-.06l.34.18A.12.12,0,0,1,138,38.49Z"/><path class="cls-1" d="M140.68,33.66a3.17,3.17,0,0,0,1.23-.12c.76-.22,1.63-.51,2.81-.94a34,34,0,0,0,6.68-3.11c0-.08-1.19.51-3,1a19,19,0,0,1-5,.58,15,15,0,0,1,1.52-.58,13.59,13.59,0,0,1,2.26-.52c1-.15,3.35-1.07,9.29-4.47a18.38,18.38,0,0,1-2.63.65,17.87,17.87,0,0,1-4.26.19,24.35,24.35,0,0,0,4.23-.75,23.55,23.55,0,0,0,4.67-1.86c2.32-1.16,3-1.88,3.39-2.77a3.55,3.55,0,0,0,.24-1.08c-.5.1-1,.19-1.56.26a25.76,25.76,0,0,1-8.19-.38,36.66,36.66,0,0,0,6.42-.5,23,23,0,0,0,5.9-1.88A20.25,20.25,0,0,0,168.31,15l-2.14.06,2.92-1L166.75,14a6.6,6.6,0,0,0,1.93-.5,7.37,7.37,0,0,0,1.33-.77,7.49,7.49,0,0,0,2.34-4c-.35.11-.72.2-1.1.29a14.13,14.13,0,0,1-4.3.23c.5-.07,1.24-.19,2.14-.36a10.39,10.39,0,0,0,2.78-.78,5.31,5.31,0,0,0,1.92-1.82l-1.31.22-2.31.39a13.7,13.7,0,0,1,2-.71c1.13-.32,1.71-.34,2-.8a1.59,1.59,0,0,0-.09-1.49,11,11,0,0,1-2.8,1.1c-.05-.1.44-.46,2-1.41A2.66,2.66,0,0,0,174,3l.13-.22-.68-.91a.2.2,0,0,0-.27,0l-.36.27c-.66.62-.5.45-.66.62-.5.46-1.26,1.13-2.2,1.9a84.31,84.31,0,0,1-8,5.55,69.33,69.33,0,0,0-7.13,5.53,70.36,70.36,0,0,0-7.1,7.6,90.27,90.27,0,0,0-7.09,10.35Z"/></g></g></svg>