<svg xmlns="http://www.w3.org/2000/svg" viewBox="0 0 15.06 15.06"><defs><style>.cls-1,.cls-2{fill:none;stroke-miterlimit:10;stroke-width:0.11px;}.cls-1{stroke:#231f20;}.cls-2{stroke:#000;}</style></defs><g id="Layer_2" data-name="Layer 2"><g id="Layer_1-2" data-name="Layer 1"><path d="M7.53,0a7.53,7.53,0,1,0,7.53,7.53A7.53,7.53,0,0,0,7.53,0ZM14.4,9.17l0,.07,0,0a6.67,6.67,0,0,1-2,3.36A7.29,7.29,0,0,1,9.5,14.3a6.75,6.75,0,0,1-2,.29,6.4,6.4,0,0,1-2-.29A7.42,7.42,0,0,1,4,13.63a7.28,7.28,0,0,1-1.36-1,7.81,7.81,0,0,1-1.22-1.53A7,7,0,0,1,.68,9.24,6.85,6.85,0,0,1,.47,7.53,6.76,6.76,0,0,1,.66,5.89h0v0A7.06,7.06,0,0,1,1.39,4,6.36,6.36,0,0,1,2.62,2.45l0,0,.09-.15h0A7,7,0,0,1,5.34.81h.22l0-.06a5.94,5.94,0,0,1,2-.28,6,6,0,0,1,2,.28l0,.06.1,0a7.61,7.61,0,0,1,2.73,1.58h0l.09.15,0,0a6.29,6.29,0,0,1,2,3.42c0,.25.1.53.14.82a8,8,0,0,1,.05.84,6.88,6.88,0,0,1-.19,1.64Z"/><polygon class="cls-1" points="6.49 5.78 5.47 7.54 3.43 7.54 2.41 5.78 3.43 4.01 5.47 4.01 6.49 5.78"/><polygon class="cls-1" points="12.65 5.78 12.64 5.78 11.62 7.54 9.59 7.54 8.57 5.78 9.59 4.01 11.63 4.01 12.65 5.78"/><path class="cls-2" d="M3.43,7.56l-1,1.76,1,1.77-1,1.77a7.62,7.62,0,0,1-1.28-1.61A7,7,0,0,1,.36,9.32h2l1-1.76-1-1.77h-2a7.53,7.53,0,0,1,.75-2A6.82,6.82,0,0,1,2.39,2.21l0,0L3.43,4l-1,1.76Z"/><path class="cls-2" d="M14.72,5.79H12.65L11.63,4l1-1.77,0,0A6.55,6.55,0,0,1,14.72,5.79Z"/><polygon class="cls-2" points="9.57 11.07 8.55 12.84 6.51 12.84 5.49 11.07 6.51 9.31 8.55 9.31 9.57 11.07"/><polygon class="cls-2" points="9.57 4.04 8.56 5.79 8.55 5.77 6.51 5.77 6.5 5.79 5.49 4.04 6.51 2.27 8.55 2.27 9.57 4.04"/><polygon points="9.64 7.54 8.59 9.29 6.49 9.29 5.43 7.54 6.48 5.79 6.49 5.81 8.59 5.81 8.6 5.79 9.64 7.54"/><polygon class="cls-2" points="6.49 9.32 5.47 11.09 3.43 11.09 2.42 9.32 3.43 7.56 5.47 7.56 6.49 9.32"/><path d="M12.65,12.86a7.8,7.8,0,0,1-3.06,1.76l-1-1.76,1-1.77h2Z"/><path d="M6.49,12.86l-1,1.76a7.68,7.68,0,0,1-1.64-.71,7.5,7.5,0,0,1-1.41-1.05l1-1.77h2Z"/><polygon class="cls-2" points="12.65 9.32 11.63 11.09 9.59 11.09 8.57 9.32 9.59 7.56 11.62 7.56 12.64 9.32 12.65 9.32"/><path d="M14.92,7.53a6.9,6.9,0,0,1-.2,1.71h0l0,.07h-2l-1-1.76,1-1.77h2.07c.06.27.11.56.15.86S14.92,7.25,14.92,7.53Z"/><path d="M12.65,2.26,11.63,4h-2l-1-1.77L9.59.5l.1,0a8,8,0,0,1,2.87,1.65h0Z"/><path d="M3.4,7.56l-1,1.76h-2A7,7,0,0,1,.14,7.53a7.5,7.5,0,0,1,.2-1.72h0v0h2Z"/><path d="M6.49,2.26,5.47,4h-2l-1-1.77.09-.15h0A7.24,7.24,0,0,1,5.24.5h.23Z"/></g></g></svg>