<svg id="Layer_1" data-name="Layer 1" xmlns="http://www.w3.org/2000/svg" xmlns:xlink="http://www.w3.org/1999/xlink" viewBox="0 0 1414.49 185.19"><defs><style>.cls-1,.cls-10,.cls-12,.cls-19,.cls-20,.cls-22,.cls-23,.cls-28,.cls-34,.cls-39,.cls-42,.cls-43,.cls-46,.cls-5,.cls-50,.cls-56,.cls-58,.cls-63,.cls-66,.cls-68,.cls-73,.cls-75,.cls-77{fill:none;}.cls-2{fill:#386e65;}.cls-3{fill:#808083;}.cls-10,.cls-12,.cls-13,.cls-14,.cls-15,.cls-16,.cls-17,.cls-18,.cls-19,.cls-22,.cls-24,.cls-25,.cls-26,.cls-3,.cls-30,.cls-31,.cls-33,.cls-36,.cls-37,.cls-38,.cls-40,.cls-41,.cls-44,.cls-45,.cls-46,.cls-47,.cls-48,.cls-49,.cls-50,.cls-51,.cls-52,.cls-53,.cls-54,.cls-55,.cls-56,.cls-6,.cls-60,.cls-61,.cls-62,.cls-63,.cls-65,.cls-66,.cls-7,.cls-70,.cls-71,.cls-72,.cls-73,.cls-77,.cls-8,.cls-9{stroke:#000;}.cls-10,.cls-11,.cls-12,.cls-13,.cls-14,.cls-15,.cls-16,.cls-17,.cls-18,.cls-19,.cls-20,.cls-22,.cls-23,.cls-24,.cls-25,.cls-26,.cls-28,.cls-3,.cls-30,.cls-31,.cls-32,.cls-33,.cls-34,.cls-36,.cls-37,.cls-39,.cls-41,.cls-42,.cls-43,.cls-46,.cls-47,.cls-48,.cls-49,.cls-5,.cls-50,.cls-51,.cls-52,.cls-53,.cls-54,.cls-55,.cls-56,.cls-57,.cls-58,.cls-6,.cls-60,.cls-61,.cls-62,.cls-63,.cls-65,.cls-66,.cls-67,.cls-68,.cls-69,.cls-7,.cls-70,.cls-71,.cls-72,.cls-73,.cls-75,.cls-77,.cls-8,.cls-9{stroke-miterlimit:10;}.cls-13,.cls-15,.cls-16,.cls-17,.cls-18,.cls-24,.cls-25,.cls-26,.cls-3,.cls-30,.cls-31,.cls-32,.cls-36,.cls-37,.cls-38,.cls-39,.cls-40,.cls-44,.cls-45,.cls-47,.cls-48,.cls-49,.cls-51,.cls-53,.cls-54,.cls-55,.cls-56,.cls-58,.cls-6,.cls-60,.cls-61,.cls-62,.cls-7,.cls-70,.cls-71,.cls-72,.cls-75,.cls-8,.cls-9{stroke-width:2.9px;}.cls-4{fill:#fff;}.cls-39,.cls-5,.cls-57{stroke:#221f1f;}.cls-10,.cls-5{stroke-width:3.41px;}.cls-6{fill:#fdcd93;}.cls-8{fill:#0e0e0f;}.cls-9{fill:#7a0511;}.cls-11{fill:#78121c;stroke:#cfd1d2;stroke-width:1.71px;}.cls-12{stroke-width:1.02px;}.cls-13,.cls-42,.cls-45,.cls-75{stroke-linecap:round;}.cls-14{stroke-width:2.96px;}.cls-15{fill:#4c2f17;}.cls-16{fill:#4d2e18;}.cls-17{fill:#396f65;}.cls-18{fill:#59595c;}.cls-19{stroke-width:2.77px;}.cls-20,.cls-23{stroke:#a6a7aa;}.cls-20{stroke-width:2.49px;}.cls-21,.cls-48{fill:#f1f1f1;}.cls-22{stroke-width:1.11px;}.cls-23{stroke-width:0.83px;}.cls-24{fill:#32489a;}.cls-25{fill:#eccbba;}.cls-26,.cls-45{fill:#414141;}.cls-27{fill:#8c775e;stroke:#8c775e;stroke-width:3.18px;}.cls-27,.cls-45{stroke-linejoin:round;}.cls-28{stroke:#fff;stroke-width:2.97px;}.cls-29{fill:#4d62aa;}.cls-30,.cls-33{fill:#ffd9aa;}.cls-31{fill:#006c46;}.cls-32{fill:#6a4f30;stroke:#6a4f30;}.cls-33{stroke-width:2.39px;}.cls-34{stroke:#008154;}.cls-34,.cls-66,.cls-68{stroke-width:1.16px;}.cls-35{fill:#008154;}.cls-36,.cls-38{fill:#c17133;}.cls-37,.cls-44{fill:#282560;}.cls-38,.cls-40,.cls-44{stroke-linejoin:bevel;}.cls-41,.cls-42{stroke-width:2.01px;}.cls-42{stroke:#b4822d;}.cls-43,.cls-68,.cls-69{stroke:#59595c;}.cls-43,.cls-52{stroke-width:0.97px;}.cls-46{stroke-width:1.55px;}.cls-47{fill:#6c483e;}.cls-49{fill:#5b4a42;}.cls-50{stroke-width:1.37px;}.cls-51{fill:#6d6f70;}.cls-53{fill:#63483e;}.cls-54{fill:#881c2e;}.cls-55{fill:#c0b399;}.cls-57{fill:#babcbe;stroke-width:0.58px;}.cls-58{stroke:#411216;}.cls-59{fill:#20221f;}.cls-60,.cls-65{fill:#ffead4;}.cls-61{fill:#221f1f;}.cls-62{fill:#8ac440;}.cls-63,.cls-65{stroke-width:1.36px;}.cls-64{clip-path:url(#clip-path);}.cls-67{fill:#fadf5a;stroke:#fadf5a;stroke-width:0.19px;}.cls-69{fill:#5c822b;stroke-width:0.18px;}.cls-70{fill:#f5cab2;}.cls-71{fill:#4f5143;}.cls-72{fill:#898c74;}.cls-73{stroke-width:2.74px;}.cls-74{fill:#3a2416;}.cls-75{stroke:#3a2416;}.cls-76{fill:#bda40a;}.cls-77{stroke-width:0.77px;}</style><clipPath id="clip-path"><rect class="cls-1" x="946.67" y="69.97" width="14.9" height="6.08"/></clipPath></defs><g id="Layer_2" data-name="Layer 2"><g id="Layer_1-2" data-name="Layer 1-2"><rect class="cls-2" width="1414.49" height="185.19"/><path class="cls-3" d="M362.52,106.65H333.9A36.28,36.28,0,0,0,338.28,98c.46-1.33,1.81-5.47,2.15-17.39.1-3.38.35-11.53.09-17.22h15.39c-.26,5.69,0,13.84.09,17.22.34,11.92,1.69,16.06,2.15,17.39A37,37,0,0,0,362.52,106.65Z"/><path class="cls-4" d="M337.6,73.36l.33-.74a4.57,4.57,0,0,0-.7-.35,4.13,4.13,0,0,0-3.47.12,1.85,1.85,0,0,0-.81.87,1.57,1.57,0,0,0-.08,1c.18.59.77.86,1.38,1.13a6.5,6.5,0,0,0,1.37.39,5.9,5.9,0,0,1,1.16.33.82.82,0,0,1,.37.29.78.78,0,0,1,0,.7c-.37.7-1.85.56-2.11.53A4.2,4.2,0,0,1,333.1,77l-.44.72.19.13a4.69,4.69,0,0,0,2.88.67,3.54,3.54,0,0,0,1.33-.26,2,2,0,0,0,.87-.62,1.58,1.58,0,0,0,.3-1.17,1.49,1.49,0,0,0-.65-1,2.07,2.07,0,0,0-.76-.29c-.64-.19-1.06-.24-1.67-.38a2.72,2.72,0,0,1-.63-.2c-.19-.09-.51-.25-.58-.55s.37-.8.43-.85a1.53,1.53,0,0,1,.68-.29,3.4,3.4,0,0,1,1.73.17A4.66,4.66,0,0,1,337.6,73.36Z"/><ellipse class="cls-4" cx="345.4" cy="72.22" rx="0.71" ry="0.61"/><rect class="cls-4" x="344.87" y="73.67" width="1.01" height="4.72"/><path class="cls-4" d="M359.68,79.92h-19.9V77.75a3.12,3.12,0,0,0,1.2.65,3.06,3.06,0,0,0,2-.14,2.47,2.47,0,0,0,1.14-.93,2.24,2.24,0,0,0,.33-1,2.49,2.49,0,0,0-.44-1.71,2.7,2.7,0,0,0-1.64-1,3.4,3.4,0,0,0-1.76.11,1.56,1.56,0,0,0-.69.46,1.32,1.32,0,0,0-.12.2v-.76h-.9v7.12h20.89c.23,0,.33-.19.33-.43A.42.42,0,0,0,359.68,79.92Zm-18.16-5.5a1.76,1.76,0,0,1,1.82,1.64,1.84,1.84,0,0,1-3.64,0A1.77,1.77,0,0,1,341.52,74.42Z"/><path class="cls-4" d="M350.67,76.3h1.15a1.77,1.77,0,0,0,0-.46,2.71,2.71,0,0,0-1-1.77,3.08,3.08,0,0,0-2.94-.2,2.37,2.37,0,0,0-1.07.88,2.47,2.47,0,0,0-.26,2,2.8,2.8,0,0,0,2,1.61,3.25,3.25,0,0,0,2-.06,3.08,3.08,0,0,0,1-.63l-.56-.6a2.6,2.6,0,0,1-.45.28,2.52,2.52,0,0,1-2.21.07,1.56,1.56,0,0,1-.68-.64.72.72,0,0,1-.09-.2,1.58,1.58,0,0,1-.09-.31h3.24Zm-3.24-.65c0-.75.76-1.27,1.7-1.27s1.71.52,1.71,1.27Z"/><rect class="cls-4" x="352.35" y="71.8" width="1.04" height="6.62"/><path class="cls-4" d="M358.62,74.83a2,2,0,0,0-1-1,4.16,4.16,0,0,0-3.47.41l.39.67a3.78,3.78,0,0,1,.64-.31,2.87,2.87,0,0,1,1-.2,1.51,1.51,0,0,1,1,.19,1.34,1.34,0,0,1,.49,1.07h-2.42a1.61,1.61,0,0,0-.89.42,1.26,1.26,0,0,0-.4.81,1.49,1.49,0,0,0,.68,1.2,2.74,2.74,0,0,0,1.71.26,2.47,2.47,0,0,0,1.38-.5v.48h1V75.2A1.58,1.58,0,0,0,358.62,74.83Zm-.92,2c0,.55-.95,1-1.58,1h0c-.61,0-1.1-.31-1.1-.68h0a.76.76,0,0,1,.74-.79.48.48,0,0,1,.12,0h1.85Z"/><path class="cls-4" d="M361.26,75.08a1.65,1.65,0,0,1,0-.7,1.85,1.85,0,0,1,.32-.68,5.14,5.14,0,0,1,1.21-1.07,5.62,5.62,0,0,0-.09.57,2.07,2.07,0,0,1,.34-.7,1.59,1.59,0,0,1,.74-.38s-.17.61-.16.61a1.85,1.85,0,0,1,.5-.84,2,2,0,0,1,.45-.25,4,4,0,0,1,1.27-.27,4.39,4.39,0,0,0-.32.51l.46-.39-.15.29.48-.31s0,.1-.22.27-.62.45-1.1.75-.73.44-1.16.72a9.79,9.79,0,0,0-1.39,1,8,8,0,0,0-1.3,1.49,21.12,21.12,0,0,0-1.4,2.21h-.11a.11.11,0,0,1-.05-.09,2.11,2.11,0,0,1,0-1,1.6,1.6,0,0,1,.1-.23s.05.56.06.56.06-.62.06-.62.06.28.15.32A2.22,2.22,0,0,1,360,76a2.56,2.56,0,0,1,.3-.65,3.29,3.29,0,0,1,.79-.87.48.48,0,0,0,.17.6Z"/><path class="cls-4" d="M359.62,78.14l.09.06c.09.06.11,0,.14,0s.07-.11,0-.22c.13-.21.24-.4.4-.63a14,14,0,0,1,1.3-1.85c.09-.1.35-.41.55-.61l.52-.51a10.67,10.67,0,0,1,1.5-1.18l.76-.5a5.64,5.64,0,0,0,1-.7s0,0-.12,0l-.12.06-.41.28a2.92,2.92,0,0,1-.37.24l-.54.33a6.07,6.07,0,0,0-.94.61,8.35,8.35,0,0,0-.88.69c-.08.08-.31.29-.59.58a11.16,11.16,0,0,0-.76.94,9.58,9.58,0,0,0-.61.88,7.54,7.54,0,0,0-.47.77s-.32.51-.35.54a.16.16,0,0,0-.09.07A.33.33,0,0,0,359.62,78.14Z"/><rect class="cls-4" x="359.59" y="78.15" width="0.17" height="0.41" rx="0.06" transform="translate(148.02 379.52) rotate(-67.19)"/><path class="cls-4" d="M359.65,78.76a.39.39,0,0,1,.08-.14l-.3-.13a.21.21,0,0,1,0,.11.14.14,0,0,0-.1.06l-.08.11c0,.06-.08.13,0,.21s.06.12,0,.32c.12-.17.2-.2.26-.21a.2.2,0,0,1,.08,0,.27.27,0,0,0,.07-.14A1.77,1.77,0,0,1,359.65,78.76Zm-.15.1v.07h-.06v-.06h.07S359.51,78.85,359.5,78.86Z"/><path class="cls-4" d="M360,77.92a1,1,0,0,0,.24,0l.54-.18a7,7,0,0,0,1.3-.61,4.27,4.27,0,0,1-.58.19,3.74,3.74,0,0,1-1,.11c.06,0,.16-.07.3-.11a2.16,2.16,0,0,1,.44-.1,7.48,7.48,0,0,0,1.8-.87,3.18,3.18,0,0,1-.51.13,3.84,3.84,0,0,1-.83,0,4.64,4.64,0,0,0,.83-.14,4.82,4.82,0,0,0,.91-.37c.45-.22.59-.36.66-.53a.74.74,0,0,0,0-.21l-.3,0a5,5,0,0,1-1.59-.08,8.52,8.52,0,0,0,1.24-.09,4.68,4.68,0,0,0,1.15-.37,3.54,3.54,0,0,0,.71-.45H365l.56-.19h-.45a1.2,1.2,0,0,0,.37-.1,1.35,1.35,0,0,0,.26-.15,1.46,1.46,0,0,0,.46-.77l-.22.06a2.89,2.89,0,0,1-.83,0l.41-.07a1.67,1.67,0,0,0,.54-.15.92.92,0,0,0,.38-.35h-.26l-.45.07a3,3,0,0,1,.39-.13c.22-.07.33-.07.39-.16a.37.37,0,0,0,0-.29,1.84,1.84,0,0,1-.55.21,3.32,3.32,0,0,1,.4-.27.53.53,0,0,0,.14-.12h0l-.14-.18h-.07l-.13.13-.43.36a13.85,13.85,0,0,1-1.55,1.08,14.25,14.25,0,0,0-1.38,1.08,12.87,12.87,0,0,0-1.38,1.48,16.15,16.15,0,0,0-1.38,2Z"/><line class="cls-5" x1="302.49" y1="79.31" x2="302.49" y2="78.92"/><line class="cls-5" x1="302.49" y1="63.41" x2="302.49" y2="62.69"/><line class="cls-5" x1="394.16" y1="79.32" x2="394.16" y2="78.92"/><line class="cls-5" x1="394.16" y1="63.41" x2="394.16" y2="62.87"/><line class="cls-5" x1="330.61" y1="106.65" x2="329.69" y2="106.65"/><path class="cls-6" d="M302.49,63.41V78.92h-3.83a8,8,0,0,1-8-7.87,7.76,7.76,0,0,1,7.76-7.64Z"/><path class="cls-7" d="M365.67,159.33v2.6a4.75,4.75,0,0,1-4.73,4.77h-5.16a4.78,4.78,0,0,1-4.77-4.77v-2.6Z"/><path class="cls-7" d="M345.64,159.33v2.6a4.77,4.77,0,0,1-4.76,4.77h-5.14a4.76,4.76,0,0,1-4.76-4.76h0v-2.6Z"/><path class="cls-8" d="M365.69,106.65l.31.17-.36,10.61v41.9H351V120.21a2.75,2.75,0,0,0-1.41-2.47,2.84,2.84,0,0,0-1.28-.31,2.59,2.59,0,0,0-1.52.48,2.88,2.88,0,0,0-1.17,2.39v10.11h0v28.92H331v-41.9l-.36-10.61v-.17Z"/><path class="cls-6" d="M406,71.25a7.75,7.75,0,0,1-7.75,7.67h-4.11V63.41H398A8,8,0,0,1,406,71.25Z"/><path class="cls-9" d="M340.52,63.41c.26,5.69,0,13.84-.09,17.22-.34,11.92-1.69,16.06-2.15,17.39a36.33,36.33,0,0,1-4.38,8.63h-3.29l-.8-24a3.88,3.88,0,0,0-3.88-3.74H302.49V63.41Z"/><path class="cls-9" d="M394.16,63.41V78.92H370.72a3.88,3.88,0,0,0-3.88,3.74l-.83,24a.21.21,0,0,1-.22.2l-3.27-.15A36.88,36.88,0,0,1,358.15,98c-.46-1.33-1.81-5.47-2.15-17.39-.1-3.38-.35-11.53-.09-17.22Z"/><path class="cls-6" d="M366.14,40.82a17.82,17.82,0,1,1-34.43-6.45l.26-.14a18.31,18.31,0,0,0-1.29,5.7A12.25,12.25,0,0,0,331,43.7a1,1,0,0,0,1,.76,34.28,34.28,0,0,0,3.79-.4c11.46-1.86,15.83-8.87,20.06-13.68a.73.73,0,0,1,1-.07l.11.12,1.32,1.78c3.57,4.86,4.75,6.11,7.07,6.55l.67.12A15.66,15.66,0,0,1,366.14,40.82Z"/><path class="cls-10" d="M366,38.88l-.67-.12c-2.32-.44-3.5-1.69-7.07-6.55L357,30.43a.72.72,0,0,0-1-.16l-.12.11c-4.23,4.81-8.6,11.82-20.06,13.68a34.28,34.28,0,0,1-3.79.4,1,1,0,0,1-1-.76,12.57,12.57,0,0,1-.34-3.77,18.31,18.31,0,0,1,1.29-5.7l-.26.14a18,18,0,0,1,4.09-6.22.47.47,0,0,0,.1-.1,17.87,17.87,0,0,1,9.21-4.76h.06c.61-.1,1.22-.18,1.85-.23.43,0,.87,0,1.3,0a17.72,17.72,0,0,1,3.08.27h0a17.51,17.51,0,0,1,6.94,2.82,17.8,17.8,0,0,1,5.86,6.65A17.31,17.31,0,0,1,366,38.87Z"/><path class="cls-11" d="M356.84,65.1c-.07,2.93-.11,7.57,0,12.66.22,10.33.55,13.38.71,14.57,1.05,7.92,3.46,10.18,6.26,15"/><path class="cls-11" d="M339.64,65.1c.06,2.93.11,7.57,0,12.66-.23,10.33-.56,13.38-.72,14.57-1,7.92-3.45,10.18-6.26,15"/><path class="cls-12" d="M362.77,64V74.11"/><path class="cls-12" d="M333.88,64V74.11"/><path class="cls-7" d="M365.89,38.92l-.68-.13c-2.32-.43-3.5-1.68-7.06-6.54l-1.33-1.79a.74.74,0,0,0-1-.1.47.47,0,0,0-.1.1c-4.23,4.81-8.6,11.81-20.06,13.68a34.09,34.09,0,0,1-3.78.39.92.92,0,0,1-1-.76,12.23,12.23,0,0,1-.35-3.76,18.31,18.31,0,0,1,1.29-5.7,20,20,0,0,1,3.78-5.85l.22-.24.27-.28A17.42,17.42,0,0,1,345,23.33h0c.59-.12,1.18-.2,1.76-.26a17.46,17.46,0,0,1,5,.2h0a12.6,12.6,0,0,1,3,1c1.59.75,3,1.48,3.61,1.82l.23.14a18.8,18.8,0,0,1,5,5.51A6.83,6.83,0,0,1,364,32.8c.67,2,1.78,6.12,1.78,6.12h.1Z"/><path class="cls-13" d="M354.41,29.24c-.56,1.79-7.22-.47-16.76,2.56A33.18,33.18,0,0,0,332,34.23l-.26.14c-.72.4-1.48.86-2.26,1.37a15.1,15.1,0,0,1,4.7-6.5,15.72,15.72,0,0,1,1.58-1.08l-7.14.39c.84-1,5.51-6.41,12.73-6.49a16.79,16.79,0,0,1,5.61,1h.09a19.28,19.28,0,0,1,2.42,1.06,16.14,16.14,0,0,1,3.36,2.33h0C354,27.55,354.61,28.6,354.41,29.24Z"/><path class="cls-13" d="M349,25.12c-.07-.86,1.31-3,7.32-1.18a16.27,16.27,0,0,1,4.1,1.9c-2.15-.26-1.81.66-4.78.77C349.87,26.46,349,25.53,349,25.12Z"/><path class="cls-14" d="M722.23,41.5v.7c-.17,9.08-5,13.15-9.54,14.95a21.34,21.34,0,0,1-7.78,1.44H704a21.49,21.49,0,0,1-7.77-1.44c-4.54-1.81-9.3-5.85-9.55-14.88h0V41.5c0-8.2,7.85,7.13,17.88,7.13S722.16,32.72,722.23,41.5Z"/><path class="cls-15" d="M722.22,42.2v-.7c-.07-8.78-7.7,7.13-17.73,7.13S686.63,33.3,686.62,41.5v.77a19.38,19.38,0,0,1-.14-2.28,17.94,17.94,0,0,1,35.88-.21,19.53,19.53,0,0,1-.15,2.42Z"/><path class="cls-16" d="M762.5,70.62a7.82,7.82,0,0,1-7.8,7.72H735.14V62.73h19.28A8,8,0,0,1,762.5,70.62Z"/><path class="cls-16" d="M673.12,62.73V78.34H654.43a8,8,0,0,1-8.08-7.92h0a7.8,7.8,0,0,1,7.8-7.69Z"/><path class="cls-17" d="M735.14,62.73V78.34H727a3.91,3.91,0,0,0-3.9,3.77l-.82,24.31v1H686.63v-1l-.82-24.31a3.91,3.91,0,0,0-3.9-3.77h-8.76V62.73h19.72v.14c0,4.49,5.18,8.13,11.58,8.13S716,67.36,716,62.87v-.14Z"/><path class="cls-18" d="M722.22,107.41l-.33,9.7V159H707.13V119.91a2.77,2.77,0,0,0-1.42-2.5,3,3,0,0,0-1.29-.3,2.55,2.55,0,0,0-1.53.48,2.92,2.92,0,0,0-1.18,2.41v10.17h0V159H687V117.11l-.33-9.7Z"/><path class="cls-7" d="M701.72,159v2.88a4.8,4.8,0,0,1-4.79,4.8h-5.18a4.8,4.8,0,0,1-4.79-4.8V159Z"/><path class="cls-7" d="M721.89,159v2.88a4.78,4.78,0,0,1-4.78,4.8h-5.19a4.8,4.8,0,0,1-4.79-4.8V159Z"/><path class="cls-4" d="M695.9,76.84l.26-.6a4.18,4.18,0,0,0-.56-.28,3.36,3.36,0,0,0-2.79.1,1.5,1.5,0,0,0-.64.7,1.22,1.22,0,0,0-.06.8c.14.48.61.69,1.1.91a6,6,0,0,0,1.1.31,5,5,0,0,1,.93.27c.2.1.26.17.29.23a.61.61,0,0,1,0,.56c-.3.56-1.49.45-1.7.43a3.55,3.55,0,0,1-1.51-.53c-.11.18-.25.39-.36.58l.16.09a3.75,3.75,0,0,0,2.31.55,2.63,2.63,0,0,0,1.07-.22,1.47,1.47,0,0,0,.69-.49,1.32,1.32,0,0,0,.25-.94,1.27,1.27,0,0,0-.53-.82,1.88,1.88,0,0,0-.61-.23c-.51-.15-.85-.19-1.34-.31a1.78,1.78,0,0,1-.51-.16c-.14-.07-.4-.2-.46-.44s.3-.64.35-.68a1.18,1.18,0,0,1,.54-.23,2.73,2.73,0,0,1,1.39.13C695.4,76.63,695.63,76.71,695.9,76.84Z"/><ellipse class="cls-4" cx="702.16" cy="75.93" rx="0.57" ry="0.49"/><rect class="cls-4" x="701.73" y="77.09" width="0.81" height="3.79"/><path class="cls-4" d="M713.61,82.1h-16V80.36a2.52,2.52,0,0,0,1,.52,2.42,2.42,0,0,0,1.57-.11,2.08,2.08,0,0,0,.92-.74,2,2,0,0,0,.26-.78,2.14,2.14,0,0,0-.35-1.37,2.23,2.23,0,0,0-1.32-.82,2.81,2.81,0,0,0-1.41.09,1.25,1.25,0,0,0-.56.37l-.09.16v-.61h-.72v5.71h16.72c.18,0,.26-.15.26-.34S713.79,82.1,713.61,82.1ZM699,77.69A1.4,1.4,0,0,1,700.5,79a1.48,1.48,0,0,1-2.92,0A1.43,1.43,0,0,1,699,77.69Z"/><path class="cls-4" d="M706.39,79.2h.92a1.15,1.15,0,0,0,0-.37,2.12,2.12,0,0,0-.82-1.42,2.48,2.48,0,0,0-2.36-.16,1.86,1.86,0,0,0-.86.71,1.94,1.94,0,0,0-.21,1.61,2.19,2.19,0,0,0,1.59,1.29,2.51,2.51,0,0,0,1.58,0,2.45,2.45,0,0,0,.83-.51l-.46-.48a2.64,2.64,0,0,1-.35.23,2.09,2.09,0,0,1-1.78.06,1.38,1.38,0,0,1-.55-.52l-.07-.16a1,1,0,0,1-.06-.25h2.6Zm-2.61-.53c0-.59.61-1,1.37-1s1.37.42,1.37,1Z"/><rect class="cls-4" x="707.73" y="75.59" width="0.84" height="5.31"/><path class="cls-4" d="M712.76,78a1.6,1.6,0,0,0-.82-.8,3.32,3.32,0,0,0-2.78.33l.32.53a3,3,0,0,1,.51-.25,2.35,2.35,0,0,1,.83-.16,1.23,1.23,0,0,1,.8.15,1.13,1.13,0,0,1,.39.87h-1.94a1.38,1.38,0,0,0-.72.34,1,1,0,0,0-.31.65,1.19,1.19,0,0,0,.55,1,2.14,2.14,0,0,0,1.36.21,2,2,0,0,0,1.11-.4v.38h.78V78.31A1.09,1.09,0,0,0,712.76,78ZM712,79.58c0,.45-.76.82-1.27.82h0c-.49,0-.89-.25-.89-.55h0a.62.62,0,0,1,.6-.64H712Z"/><path class="cls-4" d="M714.88,78.22a1.37,1.37,0,0,1,0-.57,1.5,1.5,0,0,1,.26-.54,4.07,4.07,0,0,1,1-.85,3,3,0,0,1-.06.45,1.53,1.53,0,0,1,.27-.56,1.33,1.33,0,0,1,.59-.3s-.14.48-.13.49a1.54,1.54,0,0,1,.41-.68,1.27,1.27,0,0,1,.36-.2,2.89,2.89,0,0,1,1-.21,3.42,3.42,0,0,0-.26.4l.36-.31-.11.23.38-.24s0,.08-.17.21-.5.36-.89.6l-.93.58a7.8,7.8,0,0,0-1.11.8,7.09,7.09,0,0,0-1,1.19,18.32,18.32,0,0,0-1.12,1.78h-.09s0,0,0-.07a1.8,1.8,0,0,1,0-.8l.09-.18v.45l0-.49s0,.21.12.25A1.52,1.52,0,0,1,714,79a1.7,1.7,0,0,1,.24-.53,2.8,2.8,0,0,1,.63-.7.47.47,0,0,0,0,.33A.34.34,0,0,0,714.88,78.22Z"/><path class="cls-4" d="M713.56,80.68h.18s.06-.09,0-.18l.32-.51a12.38,12.38,0,0,1,1-1.48c.07-.08.28-.33.44-.49l.42-.41a8.84,8.84,0,0,1,1.2-1l.61-.39c.71-.47.79-.55.78-.57s0,0-.1,0h-.09l-.33.22-.3.2-.44.26a4.94,4.94,0,0,0-.75.49,6.36,6.36,0,0,0-.7.56,5.22,5.22,0,0,0-.48.46c-.25.28-.42.5-.61.75a7.27,7.27,0,0,0-.49.71c-.19.31-.35.56-.38.62a4,4,0,0,1-.28.43l-.06.06a.13.13,0,0,0-.1.16A.13.13,0,0,0,713.56,80.68Z"/><rect class="cls-4" x="713.55" y="80.65" width="0.14" height="0.33" rx="0.05" transform="translate(362.47 707.29) rotate(-67.19)"/><path class="cls-4" d="M713.59,81.17a.16.16,0,0,1,.06-.11l-.24-.1V81h-.08l-.06.09s-.06.1,0,.16,0,.1,0,.26c.1-.13.16-.16.21-.16a.09.09,0,0,0,.07,0,.27.27,0,0,0,.06-.12A.36.36,0,0,1,713.59,81.17Zm-.13.08v.06h0v0h0Z"/><path class="cls-4" d="M713.89,80.5a.61.61,0,0,0,.19,0,3.26,3.26,0,0,0,.44-.15,5.4,5.4,0,0,0,1-.48,3.56,3.56,0,0,1-.47.15,3.46,3.46,0,0,1-.78.09l.23-.09a1.55,1.55,0,0,1,.36-.08,6.06,6.06,0,0,0,1.45-.7,2.82,2.82,0,0,1-1.08.13,3.9,3.9,0,0,0,1.39-.4c.36-.19.47-.3.53-.44a.43.43,0,0,0,0-.16h-.25a4.52,4.52,0,0,1-1.27-.06,6.74,6.74,0,0,0,1-.08,3.67,3.67,0,0,0,.92-.3,3.41,3.41,0,0,0,.57-.36h-.34l.46-.15h-.37a.79.79,0,0,0,.3-.08.72.72,0,0,0,.21-.12,1.2,1.2,0,0,0,.37-.61h-.17a2.58,2.58,0,0,1-.68,0l.34-.06a1.62,1.62,0,0,0,.43-.12.73.73,0,0,0,.3-.28h-.2l-.36.06.31-.11c.17,0,.26,0,.31-.13s0-.1,0-.23a1.33,1.33,0,0,1-.43.17,2,2,0,0,1,.31-.22.27.27,0,0,0,.12-.09h0l-.11-.14h-.06l-.1.09-.34.3c-.51.41-.84.59-1.25.87a10.28,10.28,0,0,0-1.11.86,10.94,10.94,0,0,0-1.06,1.3,14.88,14.88,0,0,0-1.1,1.62Z"/><path class="cls-16" d="M716,62.87c0,4.49-5.19,8.13-11.59,8.13s-11.58-3.64-11.58-8.13v-.14H716Z"/><rect class="cls-19" x="747.53" y="65.5" width="0.08" height="10.06"/><rect class="cls-20" x="747.53" y="65.5" width="0.08" height="10.06"/><circle class="cls-21" cx="747.57" cy="70.53" r="2.62"/><circle class="cls-22" cx="747.57" cy="70.53" r="2.62"/><circle class="cls-23" cx="747.57" cy="70.53" r="2.62"/><path class="cls-24" d="M510.07,67.57V82.45H488.75a4.43,4.43,0,0,0-4.43,4.28l-.71,21H449.52l-.7-21a4.43,4.43,0,0,0-4.43-4.28H423.07V67.57Z"/><path class="cls-25" d="M423.07,67.57V82.45H418.9a7.67,7.67,0,0,1-7.7-7.55,7.44,7.44,0,0,1,7.44-7.33Z"/><path class="cls-26" d="M483.61,107.73l-.05,1.5-.34,10.19v39.19H469.15V122.09a2.64,2.64,0,0,0-1.35-2.38,2.75,2.75,0,0,0-1.23-.29,2.57,2.57,0,0,0-1.47.45,2.8,2.8,0,0,0-1.11,2.3v9.7h0v26.74H449.92V119.42l-.35-10.19-.05-1.5Z"/><path class="cls-7" d="M464,158.61v3.52a4.57,4.57,0,0,1-4.56,4.57H454.5a4.59,4.59,0,0,1-4.57-4.57v-3.52Z"/><path class="cls-7" d="M483.22,158.61v3.52a4.58,4.58,0,0,1-4.57,4.57h-4.93a4.59,4.59,0,0,1-4.57-4.57v-3.52Z"/><path class="cls-25" d="M521.94,75.1a7.48,7.48,0,0,1-2.18,5.17,7.39,7.39,0,0,1-5.25,2.18h-4.44V67.57h4.17A7.66,7.66,0,0,1,521.94,75.1Z"/><path class="cls-25" d="M484.57,44a18.35,18.35,0,1,1-18.35-18.35A18.36,18.36,0,0,1,484.57,44Z"/><path class="cls-27" d="M484.68,38.66a.52.52,0,0,0-.17.39v2.84h0a1.27,1.27,0,0,1-.2.36.79.79,0,0,1-.22.19c-.34.22-.36,0-.54-.25s-.3-.8-.27-.54a.77.77,0,0,0,.22.5h0a1.31,1.31,0,0,1,0,.28l-.22-.17L483.2,42v-.06c-.06-.5-.3-.25-.64-1.1-.5-1.28-.8-1.65-1.27-2.86a12,12,0,0,0-1.15-2,7.92,7.92,0,0,0-2-2,7.94,7.94,0,0,0-3.5-.66c-1.06,0-1.28.48-2.92.65-.84.1-.82,0-2,.08-1.38.12-1.57.11-1.94.63s-.63,1.46-.9,1.55h0c-.11,0-.23-.14-.38-.3h0a4.17,4.17,0,0,0-.77-.8,4.23,4.23,0,0,0-4.08-.07c-.86.42-.76.73-1.38.87-1.31.29-1.82-1.1-3.42-1.17A8.66,8.66,0,0,0,453.79,36l-.65.36h0a4.26,4.26,0,0,0-1.48,1,1.84,1.84,0,0,0-.44.63,6,6,0,0,0-.67,1.85,6,6,0,0,0-.11.72c-.05-.33-.1-.85-.25.27,0,.24-1,.7-1.21.8a.28.28,0,0,1-.22,0l-.3-.18h-.06l-.1-.08-.07,0-.06-.06a2.55,2.55,0,0,1-.26-.3c-.89-1.19-1.3-3.59-1.32-5.34h0c-.26-.92.43-1.55-.07-3-.4-1.16,0-1.44,0-2.2A5.2,5.2,0,0,1,447,28c.74-1.68-.68-1.1.11-2.31.62-1-.65-.67.56-2.06.71-.82.41-.88,1-1.59,1.2-1.32,3.35-2.34,4.76-2l.72.21c1,.27,1.59.43,2,.25s.17-.33.52-.77a2.43,2.43,0,0,1,1.58-.92c.81,0,1.19.69,1.67.56s.17-.72.71-1.15c.77-.63,2.47-.32,2.64-.29,1.26.24,1.62.82,2.33.66s.49-.58,1.12-.78,1.08.25,2.93.64c1.17.25,1.47.16,1.9.47s.38.75.94,1.14c.28.2.49.22,1.67.45l3.15.66c.91.19,1.36.28,1.47.32a6.73,6.73,0,0,1,2.44,1.75c.78.73,1.17,1.09,1.28,1.51s.05.63.37.88l.38.31c.43.37,0,.45.43,1.11.24.43-.2,1.09.2,1.58.55.7-.27.37.3.86.35.3-.69.62-.16,1,.35.24-.61.22.08,1a2,2,0,0,1,.5,1.13,2.62,2.62,0,0,1,.21,1.61A15.19,15.19,0,0,0,485,36C485,36.55,485.2,38.13,484.68,38.66Z"/><line class="cls-28" x1="466.57" y1="69.06" x2="466.57" y2="106.24"/><polygon points="493.79 73.64 477.48 73.64 477.48 67.5 503.56 67.5 493.79 73.64"/><polygon class="cls-29" points="477.2 92.5 476.85 103.07 482.29 103.25 482.84 86.35 477.2 92.5"/><polygon class="cls-29" points="455.94 92.5 456.29 103.07 450.85 103.25 450.3 86.35 455.94 92.5"/><polygon points="439.35 73.64 455.66 73.64 455.66 67.5 429.58 67.5 439.35 73.64"/><path class="cls-4" d="M472.7,76.2l.13-.29a1.74,1.74,0,0,0-.27-.14,1.69,1.69,0,0,0-1.39,0,.81.81,0,0,0-.32.34.68.68,0,0,0,0,.4c.07.24.31.34.55.45a3.47,3.47,0,0,0,.55.16,2.42,2.42,0,0,1,.46.13.14.14,0,0,1,.14.11.34.34,0,0,1,0,.28c-.15.28-.74.22-.85.21a1.53,1.53,0,0,1-.75-.26l-.17.29h.07a1.94,1.94,0,0,0,1.15.27,1.4,1.4,0,0,0,.53-.11.81.81,0,0,0,.34-.24.65.65,0,0,0,.13-.47.7.7,0,0,0-.26-.41,1.15,1.15,0,0,0-.31-.11q-.33-.09-.66-.15a1,1,0,0,1-.25-.08.29.29,0,0,1-.23-.22c0-.12.14-.32.17-.34a.64.64,0,0,1,.27-.11,1.35,1.35,0,0,1,.69.06Z"/><ellipse class="cls-4" cx="475.81" cy="75.75" rx="0.28" ry="0.24"/><rect class="cls-4" x="475.6" y="76.33" width="0.4" height="1.88"/><path class="cls-4" d="M481.49,78.81h-7.92V78a1.25,1.25,0,0,0,.48.26,1.17,1.17,0,0,0,.78-.06,1,1,0,0,0,.46-.36.9.9,0,0,0,.13-.39,1,1,0,0,0-.83-1.08,1.38,1.38,0,0,0-.7,0,.75.75,0,0,0-.28.18v-.22h-.35v2.84h8.31c.09,0,.13-.08.13-.17S481.58,78.81,481.49,78.81Zm-7.23-2.18a.71.71,0,0,1,.73.65.69.69,0,0,1-.73.62.68.68,0,0,1-.72-.62.7.7,0,0,1,.72-.65Z"/><path class="cls-4" d="M477.91,77.37h.45a.61.61,0,0,0,0-.19,1.08,1.08,0,0,0-.41-.7,1.19,1.19,0,0,0-1.17-.08.87.87,0,0,0-.43.35.94.94,0,0,0-.1.8,1.09,1.09,0,0,0,.79.64,1.16,1.16,0,0,0,.78,0,1.33,1.33,0,0,0,.41-.25L478,77.7l-.18.11a1,1,0,0,1-.88,0,.57.57,0,0,1-.27-.26.11.11,0,0,1,0-.08.24.24,0,0,1,0-.12H478Zm-1.29-.26c0-.29.3-.5.67-.5s.68.21.68.5Z"/><rect class="cls-4" x="478.57" y="75.59" width="0.41" height="2.64"/><path class="cls-4" d="M481.07,76.79a.78.78,0,0,0-.4-.4,1.68,1.68,0,0,0-1.38.16l.15.27a1.15,1.15,0,0,1,.25-.12,1.2,1.2,0,0,1,.42-.08.6.6,0,0,1,.39.07.54.54,0,0,1,.2.43h-1a.62.62,0,0,0-.36.16.52.52,0,0,0-.16.33.61.61,0,0,0,.27.47,1.15,1.15,0,0,0,.68.11,1,1,0,0,0,.55-.2v.19h.39V76.94S481.09,76.85,481.07,76.79Zm-.37.78c0,.22-.38.4-.63.4h0c-.24,0-.44-.12-.44-.27h0a.31.31,0,0,1,.31-.31h.77Z"/><path class="cls-4" d="M482.12,76.89a.66.66,0,0,1,0-.28.84.84,0,0,1,.13-.27,2.13,2.13,0,0,1,.48-.42v.22a.72.72,0,0,1,.13-.28.73.73,0,0,1,.29-.15l-.06.25a.66.66,0,0,1,.2-.34.64.64,0,0,1,.18-.1,1.79,1.79,0,0,1,.51-.11,2.39,2.39,0,0,0-.13.21l.18-.16-.06.12.19-.13-.08.11-.44.3-.46.28a4.39,4.39,0,0,0-.56.4,4.15,4.15,0,0,0-.52.59c-.15.22-.27.4-.55.89h-.05a1.28,1.28,0,0,1,0-.39l.05-.09v0s0,.11.06.12a.91.91,0,0,1,0-.33.68.68,0,0,1,.12-.26,1.47,1.47,0,0,1,.31-.35.25.25,0,0,0,0,.17A.11.11,0,0,0,482.12,76.89Z"/><path class="cls-4" d="M481.47,78.11h.06s0,0,0-.08a2.26,2.26,0,0,1,.16-.26,4.62,4.62,0,0,1,.52-.73l.21-.24.21-.21a5.39,5.39,0,0,1,.6-.47l.3-.19c.35-.24.39-.27.39-.29h-.1l-.16.12-.15.09-.22.13-.37.24-.35.28-.23.23c-.13.14-.21.25-.31.37l-.24.35-.19.31-.14.21h0A.76.76,0,0,0,481.47,78.11Z"/><rect class="cls-4" x="481.46" y="78.09" width="0.07" height="0.16" rx="0.02" transform="translate(222.77 491.7) rotate(-67.19)"/><path class="cls-4" d="M481.48,78.35h-.17v.21c0,.13.08-.08.11-.08h0a.06.06,0,0,0,0-.06Zm-.06,0Z"/><path class="cls-4" d="M481.63,78h.09l.22-.07a2.71,2.71,0,0,0,.52-.24.57.57,0,0,0-.23.07,1.27,1.27,0,0,1-.39,0h.29a2.64,2.64,0,0,0,.72-.34h-.2a1.82,1.82,0,0,1-.33,0,2,2,0,0,0,.69-.2c.18-.09.23-.15.26-.21v-.09h-.12a2.29,2.29,0,0,1-.64,0,2.09,2.09,0,0,0,.5,0,2.44,2.44,0,0,0,.46-.14,1.67,1.67,0,0,0,.28-.18h-.17l.23-.07h-.18a.38.38,0,0,0,.15,0l.1-.06a.55.55,0,0,0,.18-.31H484a1.93,1.93,0,0,1-.34,0h.17l.21-.06a.4.4,0,0,0,.15-.14h-.12c.08,0,.13,0,.15-.07s0,0,0-.11a.9.9,0,0,1-.21.08l.15-.1h.06l-.05-.07h0l-.17.14a5.27,5.27,0,0,1-.62.43,4.53,4.53,0,0,0-.55.43,5.12,5.12,0,0,0-.55.59,6.3,6.3,0,0,0-.55.8Z"/><path class="cls-30" d="M242.92,37.48A17.89,17.89,0,1,1,225,19.59a17.89,17.89,0,0,1,17.92,17.89Z"/><path class="cls-30" d="M178.06,60.57V76.5H174a8.21,8.21,0,0,1-8.25-8.08,8,8,0,0,1,8-7.85Z"/><path class="cls-30" d="M284.31,68.63a8,8,0,0,1-8,7.87H272V60.57h4.06A8.21,8.21,0,0,1,284.31,68.63Z"/><path class="cls-31" d="M272,60.57V76.5H248a4,4,0,0,0-4,3.85l-.83,24.82v1.21H206.88v-1.21L206,80.35a4,4,0,0,0-4-3.85H178V60.57Z"/><path class="cls-7" d="M243.19,106.38l-.33,9.7v40.7H227.8V118.94a2.81,2.81,0,0,0-1.46-2.55,3,3,0,0,0-1.31-.31,2.74,2.74,0,0,0-1.57.48,3,3,0,0,0-1.19,2.47v10.38h0v27.37H207.21v-40.7l-.33-9.7Z"/><path class="cls-26" d="M222.27,156.78v5a4.89,4.89,0,0,1-4.89,4.89H212.1a4.89,4.89,0,0,1-4.89-4.89v-5Z"/><path class="cls-26" d="M242.86,156.78v5a4.89,4.89,0,0,1-4.89,4.89h-5.28a4.89,4.89,0,0,1-4.89-4.89v-5Z"/><path class="cls-4" d="M216.82,73l.23-.5a2.16,2.16,0,0,0-.48-.24,2.87,2.87,0,0,0-2.38.08,1.28,1.28,0,0,0-.54.59,1,1,0,0,0-.06.69c.13.4.53.59.94.77a4.37,4.37,0,0,0,.94.26,5.48,5.48,0,0,1,.79.23.55.55,0,0,1,.25.2.51.51,0,0,1,0,.48c-.25.48-1.27.38-1.44.36a2.89,2.89,0,0,1-1.3-.45l-.3.5.14.08a3.2,3.2,0,0,0,2,.46,2.39,2.39,0,0,0,.92-.18,1.46,1.46,0,0,0,.59-.42,1.14,1.14,0,0,0,.21-.8,1.07,1.07,0,0,0-.45-.7,1.93,1.93,0,0,0-.52-.2c-.44-.13-.72-.16-1.15-.26a2.13,2.13,0,0,1-.43-.13c-.12-.07-.34-.17-.39-.38s.25-.54.3-.58a1.06,1.06,0,0,1,.46-.2,2.15,2.15,0,0,1,1.18.12A3.06,3.06,0,0,1,216.82,73Z"/><ellipse class="cls-4" cx="222.16" cy="72.21" rx="0.49" ry="0.41"/><rect class="cls-4" x="221.79" y="73.2" width="0.69" height="3.23"/><path class="cls-4" d="M231.91,77.47h-13.6V76a1.94,1.94,0,0,0,.82.45,2.09,2.09,0,0,0,1.35-.1,1.62,1.62,0,0,0,.7-2.46,1.88,1.88,0,0,0-1.12-.7,2.37,2.37,0,0,0-1.21.08,1.14,1.14,0,0,0-.47.31l-.08.14v-.52h-.62V78h14.25c.16,0,.23-.14.23-.3A.24.24,0,0,0,231.91,77.47ZM219.5,73.72a1.21,1.21,0,0,1,1.25,1.12,1.26,1.26,0,0,1-2.49,0A1.21,1.21,0,0,1,219.5,73.72Z"/><path class="cls-4" d="M225.76,75h.78a1.71,1.71,0,0,0,0-.32,1.78,1.78,0,0,0-.7-1.21,2.09,2.09,0,0,0-2-.14,1.61,1.61,0,0,0-.74.6,1.67,1.67,0,0,0-.17,1.38,1.86,1.86,0,0,0,1.35,1.1,2.08,2.08,0,0,0,1.35,0,2,2,0,0,0,.7-.43l-.38-.41a2,2,0,0,1-.31.2,1.81,1.81,0,0,1-1.51,0,1.13,1.13,0,0,1-.47-.45l-.06-.13a.9.9,0,0,1-.06-.22h2.22Zm-2.22-.44c0-.51.52-.87,1.17-.87s1.16.36,1.16.87Z"/><rect class="cls-4" x="226.9" y="71.93" width="0.71" height="4.53"/><path class="cls-4" d="M231.19,74a1.36,1.36,0,0,0-.69-.67,2.82,2.82,0,0,0-2.37.27l.27.46a3.42,3.42,0,0,1,.43-.21,2,2,0,0,1,.71-.14,1.16,1.16,0,0,1,.68.13,1,1,0,0,1,.33.74H228.9a1.15,1.15,0,0,0-.61.28.93.93,0,0,0-.27.56,1,1,0,0,0,.47.82,2,2,0,0,0,1.16.18,1.62,1.62,0,0,0,.94-.35v.33h.67V74.2A1.18,1.18,0,0,0,231.19,74Zm-.63,1.34c0,.38-.65.69-1.08.69h0c-.41,0-.75-.21-.75-.46h0a.52.52,0,0,1,.49-.54.33.33,0,0,1,.1,0h1.26Z"/><path class="cls-4" d="M233,74.17a1.29,1.29,0,0,1,0-.48,1.3,1.3,0,0,1,.22-.46,3.58,3.58,0,0,1,.82-.73,2.6,2.6,0,0,1,0,.38,1.26,1.26,0,0,1,.23-.48,1.18,1.18,0,0,1,.5-.25l-.11.41A1.4,1.4,0,0,1,235,72a1.11,1.11,0,0,1,.3-.17,2.87,2.87,0,0,1,.87-.18,2.46,2.46,0,0,0-.22.34l.31-.27-.09.2.32-.21s0,.07-.15.19-.42.3-.75.51-.5.3-.79.49a5.24,5.24,0,0,0-1,.69,5,5,0,0,0-.89,1,15.18,15.18,0,0,0-1,1.51h-.08a.09.09,0,0,1,0-.07,1.52,1.52,0,0,1,0-.67l.07-.16v0s0,.19.1.22a1.84,1.84,0,0,1,0-.57,1.32,1.32,0,0,1,.21-.45,2.37,2.37,0,0,1,.54-.6.34.34,0,0,0,0,.28A.72.72,0,0,0,233,74.17Z"/><path class="cls-4" d="M231.87,76.26H232s.05-.08,0-.15l.28-.43a9.9,9.9,0,0,1,.89-1.26l.37-.42c.05,0,.22-.23.36-.35a7.08,7.08,0,0,1,1-.81l.52-.33c.61-.4.68-.47.67-.49H236l-.28.19-.25.17-.37.22s-.34.2-.64.42a5.5,5.5,0,0,0-.61.47c0,.05-.21.2-.4.4a7.67,7.67,0,0,0-.52.64c-.16.21-.25.34-.42.6a5.81,5.81,0,0,0-.32.53,2.62,2.62,0,0,1-.24.37h0A1.43,1.43,0,0,0,231.87,76.26Z"/><rect class="cls-4" x="231.85" y="76.26" width="0.12" height="0.28" rx="0.04" transform="translate(71.58 260.55) rotate(-67.19)"/><path class="cls-4" d="M231.9,76.69a.17.17,0,0,1,0-.1l-.21-.09v.08h-.07a.18.18,0,0,0-.05.07s-.06.09,0,.14,0,.09,0,.22a.28.28,0,0,1,.18-.14h.06a.14.14,0,0,0,0-.09C231.9,76.73,231.89,76.73,231.9,76.69Zm-.11.06Z"/><path class="cls-4" d="M232.15,76.11a.49.49,0,0,0,.17,0l.37-.13a5.53,5.53,0,0,0,.89-.41l-.4.13a2.15,2.15,0,0,1-.67.07l.2-.07a1.63,1.63,0,0,1,.3-.07,4.74,4.74,0,0,0,1.24-.6,2,2,0,0,1-.35.09,1.82,1.82,0,0,1-.57,0,2.84,2.84,0,0,0,.57-.1,3.61,3.61,0,0,0,.62-.24c.3-.16.4-.25.45-.37a.33.33,0,0,0,0-.14h-.21a3.32,3.32,0,0,1-1.09,0,4.91,4.91,0,0,0,.86-.07,2.73,2.73,0,0,0,.78-.25,2.46,2.46,0,0,0,.48-.31h-.28l.39-.13h-.31a.72.72,0,0,0,.25-.07l.18-.1a1,1,0,0,0,.31-.53h-.14a1.88,1.88,0,0,1-.58,0l.29,0a1,1,0,0,0,.37-.1.72.72,0,0,0,.25-.24H236l.27-.1c.15,0,.22,0,.26-.1s0-.09,0-.2a2.39,2.39,0,0,1-.37.15,1.72,1.72,0,0,1,.27-.19l.09-.08h0l-.09-.12h0l-.09.08-.29.25A11.45,11.45,0,0,1,235,73a8.81,8.81,0,0,0-1,.73,10,10,0,0,0-.95,1,12.78,12.78,0,0,0-.94,1.37Z"/><path class="cls-32" d="M245.05,40.29h-.73a4.57,4.57,0,0,1-.9-.15,1.84,1.84,0,0,1-.55-.21h0c-.7-.42-2.24-3.54-2.31-4.53h0c0-6.88-4-9.57-8-10.61a27.58,27.58,0,0,0-7.36-.64h-.09a28.22,28.22,0,0,0-7.22.51c-4,1-8.11,3.66-8.11,10.92v.17a2.17,2.17,0,0,1-.19.66,17.85,17.85,0,0,1-2.18,3.33h0a.66.66,0,0,1-.19.09,5.31,5.31,0,0,1-1.42.26h-.74v-.25c0-10,5.2-16.89,12.1-19.83a20.35,20.35,0,0,1,8-1.61,19.43,19.43,0,0,1,9.06,2.23C240.45,24,245.05,30.82,245.05,40.29Z"/><path class="cls-32" d="M234.68,22.06a3.36,3.36,0,0,1-2.14,2.69,15.66,15.66,0,0,1-7.22,1.54,15.3,15.3,0,0,1-7.45-1.67A3.23,3.23,0,0,1,216,22.06a2,2,0,0,1,.06-.48A3,3,0,0,1,217.11,20c1.59-1.31,4.67-2.2,8.21-2.2,4.07,0,7.53,1.18,8.82,2.82a2.34,2.34,0,0,1,.48.94A2.07,2.07,0,0,1,234.68,22.06Z"/><path class="cls-33" d="M235.69,60.57C235.63,63,230.88,65,225,65s-10.6-2-10.66-4.46Z"/><line class="cls-34" x1="211.43" y1="62.02" x2="211.43" y2="74.3"/><line class="cls-34" x1="238.63" y1="62.02" x2="238.63" y2="74.3"/><path class="cls-35" d="M236.37,93.58v3.81a1.21,1.21,0,0,1-1.21,1.21H214.9a1.21,1.21,0,0,1-1.21-1.21h0V93.57a6,6,0,0,0,5.83-5.38h10.31A6,6,0,0,0,236,93.58Z"/><path class="cls-36" d="M641.57,71.57a7.71,7.71,0,0,1-7.7,7.62H626.3V63.77h7.3A7.94,7.94,0,0,1,641.57,71.57Z"/><path class="cls-36" d="M542.06,63.77V79.19h-7.28a8,8,0,0,1-8-7.83,7.72,7.72,0,0,1,7.71-7.59Z"/><path class="cls-37" d="M626.3,63.77V79.19H605.06a2.3,2.3,0,0,0,.06-.74l-1-14.68Z"/><path class="cls-37" d="M563.4,79.19H542.06V63.77h22.31l-1,14.68A2.29,2.29,0,0,0,563.4,79.19Z"/><path class="cls-38" d="M590.7,64.6l-.07.29L588.06,75a3.74,3.74,0,0,1-1.29,2.1,3.69,3.69,0,0,1-5.9-2L577.78,65l-.12-.41Z"/><line class="cls-39" x1="577.68" y1="63.77" x2="577.43" y2="62.96"/><path class="cls-39" d="M601.12,48.14a1.87,1.87,0,0,0-.48-.26"/><path class="cls-40" d="M601.91,41.29a17.68,17.68,0,0,1-1.27,6.59c-.8-.37-2.32-1-2.28-1.5.47-6.32-.29-8.44-2.34-11.17A13.51,13.51,0,0,0,583,30c-3.66.71-6,3.11-9.84,7a85.62,85.62,0,0,0-6.37,7.85,17.73,17.73,0,1,1,35.09-3.6Z"/><path class="cls-41" d="M578.1,31.52V75.76A5.21,5.21,0,0,1,572.92,81H566a2.36,2.36,0,0,1-2.29-1.78,2.3,2.3,0,0,1-.06-.74l1-14.68L566.34,40a9,9,0,0,1,9-8.41Z"/><path class="cls-41" d="M604.67,79.19A2.34,2.34,0,0,1,602.39,81h-6.92a5.21,5.21,0,0,1-5.21-5.21h0V31.52H593a9,9,0,0,1,7.61,4.16h0A8.85,8.85,0,0,1,602,39.93l1.68,23.84,1,14.68A2.29,2.29,0,0,1,604.67,79.19Z"/><line class="cls-42" x1="567.8" y1="78.71" x2="567.8" y2="44.79"/><line class="cls-42" x1="573.63" y1="77.58" x2="573.63" y2="46.91"/><line class="cls-42" x1="594.64" y1="77.58" x2="594.64" y2="47.19"/><line class="cls-42" x1="599.63" y1="78.71" x2="599.63" y2="49.69"/><path class="cls-38" d="M600.64,47.88a17.73,17.73,0,0,1-33.82-3A86,86,0,0,1,573.19,37c3.82-3.89,6.18-6.29,9.84-7a13.51,13.51,0,0,1,13,5.17c2.05,2.73,2.81,4.85,2.34,11.17C598.32,46.93,599.84,47.51,600.64,47.88Z"/><path class="cls-42" d="M575.73,36.67a9.7,9.7,0,0,0-.66-5.89,6.85,6.85,0,0,0-3.51-3.52"/><path class="cls-42" d="M571,41.47a9.7,9.7,0,0,0-.66-5.89c-1.13-2.49-1.89-2.56-2.62-3"/><path class="cls-42" d="M592,33.24a8.38,8.38,0,0,1,.86-4.72,7.15,7.15,0,0,1,2.07-2.24"/><path class="cls-43" d="M585.27,40.23l-.15.76a1.71,1.71,0,0,0-.94-.24,2,2,0,0,0-1,.24v-.76c.15-.38,0,0,0-.42a3,3,0,0,0,2,0C585.26,40.23,585.12,39.85,585.27,40.23Z"/><path class="cls-43" d="M583.18,41.26v.39a.14.14,0,0,1,0,.09,4.55,4.55,0,0,1-.29,1.21h0a4.53,4.53,0,0,1-1,1.51l-.07.06a4.57,4.57,0,0,1-3.17,1.28H577a3.33,3.33,0,0,1-3.33-3.33h0V41.15a2.35,2.35,0,0,1,2.06-2.39H581a1.82,1.82,0,0,1,1.1.39A2.75,2.75,0,0,1,583.18,41.26Z"/><path class="cls-43" d="M575.73,38.76a2.35,2.35,0,0,0-2.06,2.39V38.76Z"/><path class="cls-43" d="M594.69,41.15v1.36a3.33,3.33,0,0,1-3.33,3.33h-1.6A4.54,4.54,0,0,1,585.53,43h0a5,5,0,0,1-.3-1.2V41a2.18,2.18,0,0,1,2.16-2.17h5A2.38,2.38,0,0,1,594.69,41.15Z"/><path class="cls-43" d="M594.69,38.76v2.39a2.36,2.36,0,0,0-2.35-2.38h2.35Z"/><path class="cls-42" d="M595.69,39a14.15,14.15,0,0,1,1.94-5.71,6.94,6.94,0,0,1,2.24-2.82"/><path class="cls-44" d="M602.47,109.47H565.11a.06.06,0,0,1-.06-.07q.09-2.91.39-5.81l2.12-20.48h0a4,4,0,0,0-.54-1.84.06.06,0,0,1,0-.08.06.06,0,0,1,.05,0h5.61A5.29,5.29,0,0,0,578,75.91V64.82a.07.07,0,0,1,.09,0,.08.08,0,0,1,0,0L581,74.47a3.69,3.69,0,0,0,7.19-.14l2.44-9.56a.07.07,0,0,1,.09,0,.08.08,0,0,1,0,0v11.1A5.3,5.3,0,0,0,596,81.15h5a.07.07,0,0,1,.08,0,.07.07,0,0,1,0,.06,3.86,3.86,0,0,0-.54,1.84h0l2.11,20.52c.18,1.74.31,3.48.38,5.23a.6.6,0,0,1-.57.63Z"/><path class="cls-45" d="M603.15,120l-1.44,39v1H587V120a2.36,2.36,0,0,0-.46-1.3,2.89,2.89,0,0,0-2.21-1,2.8,2.8,0,0,0-2.11,1,2.17,2.17,0,0,0-.57,1.49V130.6h0V160H567l-2-39.49c-.09-1.87-.12-3.73-.09-5.6l.09-5,.45-.44h37.4a.2.2,0,0,1,.21.19h0l.11,5.71C603.23,116.92,603.21,118.46,603.15,120Z"/><path class="cls-7" d="M581.66,160v2a4.75,4.75,0,0,1-4.73,4.74h-5.11a4.74,4.74,0,0,1-4.74-4.74l-.1-2Z"/><path class="cls-7" d="M601.67,160l-.07,2a4.74,4.74,0,0,1-4.74,4.74h-5.11A4.74,4.74,0,0,1,587,162h0v-2Z"/><path class="cls-46" d="M582.46,83.69c-1,1.43-2.4,3.16-5.35,3.16a6.06,6.06,0,0,1-5.35-3.16"/><path class="cls-46" d="M596.91,83.69c-1,1.43-2.39,3.16-5.35,3.16a6.06,6.06,0,0,1-5.35-3.16"/><path class="cls-4" d="M579.84,91.65l.14-.31a2.1,2.1,0,0,0-.3-.15,1.75,1.75,0,0,0-1.45.06.77.77,0,0,0-.33.36.61.61,0,0,0,0,.42c.08.25.32.36.58.47a2.19,2.19,0,0,0,.57.16,3.94,3.94,0,0,1,.49.14.44.44,0,0,1,.15.12.32.32,0,0,1,0,.3c-.16.29-.78.23-.88.22a1.88,1.88,0,0,1-.79-.28l-.19.3.08.06a2,2,0,0,0,1.21.28,1.8,1.8,0,0,0,.56-.11,1,1,0,0,0,.36-.26.72.72,0,0,0,.13-.49.64.64,0,0,0-.28-.43,1,1,0,0,0-.32-.12c-.26-.08-.44-.1-.7-.16a1.12,1.12,0,0,1-.26-.08.32.32,0,0,1-.24-.23c0-.12.15-.34.18-.36a.7.7,0,0,1,.28-.12,1.39,1.39,0,0,1,.73.07A2.44,2.44,0,0,1,579.84,91.65Z"/><ellipse class="cls-4" cx="583.11" cy="91.17" rx="0.3" ry="0.25"/><rect class="cls-4" x="582.88" y="91.78" width="0.42" height="1.98"/><path class="cls-4" d="M589.08,94.4h-8.33v-.91a1.22,1.22,0,0,0,.5.27,1.28,1.28,0,0,0,.82-.06,1,1,0,0,0,.48-.39,1.12,1.12,0,0,0,.14-.4,1,1,0,0,0-.84-1.14h0a1.5,1.5,0,0,0-.73,0,.5.5,0,0,0-.29.2v-.24h-.37v3h8.72c.1,0,.14-.08.14-.18S589.18,94.4,589.08,94.4Zm-7.6-2.31a.75.75,0,0,1,.77.69.72.72,0,0,1-.77.65.71.71,0,0,1-.76-.65.74.74,0,0,1,.76-.69Z"/><path class="cls-4" d="M585.31,92.88h.49a.61.61,0,0,0,0-.19,1.11,1.11,0,0,0-.43-.74,1.31,1.31,0,0,0-1.23-.09,1.08,1.08,0,0,0-.45.37,1,1,0,0,0-.11.85,1.13,1.13,0,0,0,.83.67,1.28,1.28,0,0,0,.82,0,1.34,1.34,0,0,0,.44-.27l-.24-.25a.76.76,0,0,1-.19.12,1.06,1.06,0,0,1-.92,0,.69.69,0,0,1-.29-.27V93a.29.29,0,0,1,0-.13h1.28ZM584,92.61c0-.31.32-.53.71-.53s.71.22.71.53Z"/><rect class="cls-4" x="586.01" y="91" width="0.44" height="2.77"/><path class="cls-4" d="M588.64,92.26a.8.8,0,0,0-.42-.41,1.74,1.74,0,0,0-1.46.17l.17.28a.84.84,0,0,1,.27-.13,1.57,1.57,0,0,1,.43-.09.69.69,0,0,1,.42.08.59.59,0,0,1,.2.45h-1a.77.77,0,0,0-.38.17.57.57,0,0,0-.16.35.63.63,0,0,0,.28.5,1.19,1.19,0,0,0,.72.11,1,1,0,0,0,.58-.22v.21h.4V92.42A.42.42,0,0,0,588.64,92.26Zm-.39.82c0,.23-.39.43-.66.43h0c-.25,0-.46-.13-.46-.29h0a.32.32,0,0,1,.32-.32h.81Z"/><path class="cls-4" d="M589.75,92.37a.48.48,0,0,1,0-.29.84.84,0,0,1,.13-.29,2.38,2.38,0,0,1,.51-.44.89.89,0,0,0,0,.23,1.11,1.11,0,0,1,.14-.29.62.62,0,0,1,.31-.16l-.07.26A.87.87,0,0,1,591,91a.54.54,0,0,1,.18-.11,2,2,0,0,1,.54-.11c-.05.07-.1.14-.14.21l.19-.16-.06.12.2-.13-.09.11-.46.32c-.25.15-.31.18-.48.3a3.2,3.2,0,0,0-1.13,1,9.1,9.1,0,0,0-.59.93h0a1,1,0,0,1,0-.41V93s0,.11.06.13a1,1,0,0,1,0-.35.84.84,0,0,1,.13-.27,1.29,1.29,0,0,1,.33-.37.25.25,0,0,0,0,.17A.17.17,0,0,0,589.75,92.37Z"/><path class="cls-4" d="M589.06,93.65h.06v-.09l.16-.27a7.14,7.14,0,0,1,.55-.77l.23-.26.22-.21a5,5,0,0,1,.62-.5l.32-.2c.37-.24.42-.29.41-.3h0l-.17.12-.16.1-.22.14s-.21.12-.4.25l-.37.29-.24.25a3,3,0,0,0-.32.39c-.09.12-.18.24-.26.37l-.2.32-.14.23h0A.57.57,0,0,0,589.06,93.65Z"/><rect class="cls-4" x="589.06" y="93.63" width="0.07" height="0.17" rx="0.02" transform="translate(274.33 600.41) rotate(-67.19)"/><path class="cls-4" d="M589.07,93.91v-.06h-.13v.22c0-.07.08-.09.11-.09h0v-.06C589.05,93.86,589.07,93.94,589.07,93.91ZM589,94Z"/><path class="cls-4" d="M589.23,93.56h.1l.23-.08a2.65,2.65,0,0,0,.54-.25.57.57,0,0,0-.24.08,1.41,1.41,0,0,1-.41,0h.31a2.91,2.91,0,0,0,.75-.37l-.21.06a2,2,0,0,1-.35,0,2,2,0,0,0,.35-.06,2.5,2.5,0,0,0,.38-.15c.19-.09.25-.15.27-.23a.11.11,0,0,0,0-.08h-.12a2.51,2.51,0,0,1-.67,0h.52a2.46,2.46,0,0,0,.48-.16,1.17,1.17,0,0,0,.3-.19h-.17l.23-.08h-.19a.43.43,0,0,0,.16,0l.11-.06a.69.69,0,0,0,.19-.33h-.09a2,2,0,0,1-.35,0h.17a.88.88,0,0,0,.23-.07.39.39,0,0,0,.16-.15h-.14c.1,0,.14,0,.17-.07s0-.05,0-.12a.92.92,0,0,1-.23.09l.17-.12h0l0-.22h0l0,0-.18.16c-.27.21-.44.3-.65.45a3.6,3.6,0,0,0-.58.45,4.84,4.84,0,0,0-.58.62,7.85,7.85,0,0,0-.58.84Z"/><path class="cls-47" d="M842.44,41.48A17.73,17.73,0,1,1,824.7,23.76h0A17.74,17.74,0,0,1,842.44,41.48Z"/><path class="cls-26" d="M870,64V79.38H851.67A4.12,4.12,0,0,0,847.58,83L843,124.93H827.39V86.74L840.9,76l-6-6.31,2.71-5.7Z"/><path class="cls-26" d="M822,86.76v38.17H806.36L801,83a4.1,4.1,0,0,0-4-3.62H779V64h32.88l2.7,5.67L808.53,76Z"/><polygon class="cls-48" points="837.56 63.96 834.85 69.66 827.43 85.27 827.43 86.73 827.41 106.81 822.04 106.81 822.04 85.27 814.61 69.63 811.91 63.96 837.56 63.96"/><path class="cls-49" d="M827.39,121.82v-1.36A2.75,2.75,0,0,0,826,118a3,3,0,0,0-1.27-.3,2.67,2.67,0,0,0-1.52.47,2.9,2.9,0,0,0-1.16,2.39V106.81h5.37Z"/><path class="cls-47" d="M779,64V79.38h-3.72a8,8,0,0,1-8-7.83A7.7,7.7,0,0,1,775,64Z"/><polygon class="cls-49" points="822.04 130.6 822.04 158.02 807.46 158.02 807.46 124.93 822.04 124.93 822.04 130.6 822.04 130.6"/><path class="cls-7" d="M822.05,158v4a4.74,4.74,0,0,1-4.74,4.74H812.2a4.74,4.74,0,0,1-4.74-4.74v-4Z"/><rect class="cls-49" x="827.39" y="124.93" width="14.58" height="33.09"/><path class="cls-7" d="M842,158v4a4.74,4.74,0,0,1-4.74,4.74h-5.11a4.74,4.74,0,0,1-4.74-4.74v-4Z"/><path class="cls-47" d="M882.11,71.76a7.77,7.77,0,0,1-2.26,5.36,7.67,7.67,0,0,1-5.45,2.26H870V64h4.09A7.94,7.94,0,0,1,882.11,71.76Z"/><path class="cls-50" d="M821,42.54a7.19,7.19,0,0,1-2.91.4,20.44,20.44,0,0,1-2.35-.14,3,3,0,0,1-2.61-2.95v-.66a1.59,1.59,0,0,1,1.34-1.57,23.22,23.22,0,0,1,3.62-.34,12.77,12.77,0,0,1,2.76.25C824.59,38.2,823.22,41.56,821,42.54Z"/><path class="cls-50" d="M828.48,42.54a7.19,7.19,0,0,0,2.91.4,20.41,20.41,0,0,0,2.34-.14,3,3,0,0,0,2.62-2.95v-.66A1.58,1.58,0,0,0,835,37.62a23,23,0,0,0-3.61-.34,12.77,12.77,0,0,0-2.76.25C824.85,38.2,826.22,41.56,828.48,42.54Z"/><rect class="cls-50" x="823.04" y="39.2" width="3.28" height="0.6"/><polygon class="cls-51" points="822.04 85.27 822.04 86.76 808.53 75.97 814.61 69.63 822.04 85.27"/><polygon class="cls-51" points="840.9 75.97 827.43 86.73 827.43 85.27 834.85 69.66 840.9 75.97"/><polygon class="cls-52" points="830.21 66.8 830.21 73.24 827.42 71.63 824.72 70.07 822.01 71.63 819.23 73.24 819.23 66.8 822.01 68.41 824.72 69.97 827.42 68.41 830.21 66.8"/><path class="cls-4" d="M832.65,87.77l.12-.27-.26-.14a1.58,1.58,0,0,0-1.31,0,.84.84,0,0,0-.3.32.62.62,0,0,0,0,.38c.07.22.29.32.52.43a3.23,3.23,0,0,0,.51.14,2.23,2.23,0,0,1,.44.13.3.3,0,0,1,.14.11.3.3,0,0,1,0,.26c-.14.26-.7.21-.79.2a1.64,1.64,0,0,1-.71-.25c0,.09-.12.19-.17.27h.08a1.69,1.69,0,0,0,1.07.25,1.25,1.25,0,0,0,.51-.1.62.62,0,0,0,.32-.23.63.63,0,0,0,.12-.44.59.59,0,0,0-.25-.38.79.79,0,0,0-.29-.11c-.23-.07-.39-.09-.62-.15a.73.73,0,0,1-.24-.07.35.35,0,0,1-.22-.21.47.47,0,0,1,.17-.31.47.47,0,0,1,.25-.11,1.2,1.2,0,0,1,.65.06A2.75,2.75,0,0,1,832.65,87.77Z"/><ellipse class="cls-4" cx="835.58" cy="87.35" rx="0.27" ry="0.23"/><rect class="cls-4" x="835.38" y="87.89" width="0.38" height="1.77"/><path class="cls-4" d="M840.93,90.24h-7.47v-.82a1.09,1.09,0,0,0,.45.24,1,1,0,0,0,.74,0,1,1,0,0,0,.43-.34,1.15,1.15,0,0,0,.12-.37,1,1,0,0,0-.17-.64,1,1,0,0,0-.61-.38,1.23,1.23,0,0,0-.66,0,.52.52,0,0,0-.26.17v-.21h-.34v2.67H841c.09,0,.13-.07.13-.16S841,90.24,840.93,90.24Zm-6.81-2.07a.66.66,0,0,1,.68.62.68.68,0,0,1-.8.56.69.69,0,0,1-.56-.56A.66.66,0,0,1,834.12,88.17Z"/><path class="cls-4" d="M837.56,88.88H838a.54.54,0,0,0,0-.18,1,1,0,0,0-.39-.66,1.16,1.16,0,0,0-1.1-.08.94.94,0,0,0-.4.34.9.9,0,0,0-.1.75,1,1,0,0,0,.74.61,1.33,1.33,0,0,0,.74,0,1,1,0,0,0,.39-.24l-.21-.23-.17.11a1,1,0,0,1-.83,0,.63.63,0,0,1-.26-.25V89a.24.24,0,0,1,0-.12h1.22Zm-1.22-.25c0-.28.28-.47.64-.47s.64.19.64.47Z"/><rect class="cls-4" x="838.18" y="87.19" width="0.39" height="2.49"/><path class="cls-4" d="M840.54,88.32a.85.85,0,0,0-.38-.37,1.53,1.53,0,0,0-1.3.15c0,.09.09.17.14.26a1.34,1.34,0,0,1,.24-.12,1,1,0,0,1,.39-.08.63.63,0,0,1,.38.07.52.52,0,0,1,.18.41h-.91a.6.6,0,0,0-.33.16.44.44,0,0,0-.15.3.55.55,0,0,0,.25.45,1.09,1.09,0,0,0,.64.1.83.83,0,0,0,.52-.19v.18h.37V88.46Zm-.35.74c0,.21-.35.38-.59.38h0c-.23,0-.42-.12-.42-.26h0a.29.29,0,0,1,.3-.3h.72Z"/><path class="cls-4" d="M841.53,88.42a.57.57,0,0,1,0-.26,1.23,1.23,0,0,1,.12-.26,2.15,2.15,0,0,1,.45-.4v.21a.91.91,0,0,1,.13-.26.62.62,0,0,1,.28-.14l-.06.23a.7.7,0,0,1,.19-.32.51.51,0,0,1,.16-.09,1.58,1.58,0,0,1,.48-.1l-.12.19.17-.15v.11l.18-.11-.08.1a1.78,1.78,0,0,1-.42.28l-.43.27a3.25,3.25,0,0,0-.52.37,2.63,2.63,0,0,0-.49.56,9,9,0,0,0-.53.83h0a1.15,1.15,0,0,1,0-.37V89s0,.1.06.11a.81.81,0,0,1,0-.31,1.12,1.12,0,0,1,.11-.25,1.3,1.3,0,0,1,.3-.32.2.2,0,0,0,0,.15Z"/><path class="cls-4" d="M840.91,89.57h0v-.08l.15-.24a6.63,6.63,0,0,1,.49-.69l.2-.23.2-.19a6.12,6.12,0,0,1,.56-.45l.29-.18c.33-.22.37-.26.36-.27h0l-.15.11-.14.09-.21.12-.35.23a2.91,2.91,0,0,0-.33.26l-.22.22a3.07,3.07,0,0,0-.28.35c-.15.2-.28.41-.41.62l-.13.2h0Z"/><rect class="cls-4" x="840.92" y="89.53" width="0.06" height="0.15" rx="0.02" transform="translate(432.33 830.05) rotate(-67.19)"/><path class="cls-4" d="M840.93,89.8h-.11V90c0,.07.07-.07.1-.07h0v-.06C840.92,89.8,840.92,89.83,840.93,89.8Zm-.06,0Z"/><path class="cls-4" d="M841.07,89.49h.09l.2-.07a2.75,2.75,0,0,0,.49-.23l-.22.07a1.15,1.15,0,0,1-.37,0h.28a3.29,3.29,0,0,0,.68-.33H842a2,2,0,0,0,.34-.14c.17-.08.23-.14.25-.2v-.08h-.11a2,2,0,0,1-.6,0,1.85,1.85,0,0,0,.47,0,1.33,1.33,0,0,0,.43-.13l.26-.17h-.15l.21-.07h0l.1-.06a.58.58,0,0,0,.17-.29h-.08a.86.86,0,0,1-.32,0h.16a.66.66,0,0,0,.2-.06.25.25,0,0,0,.14-.13h-.26l.14-.06h.15a.11.11,0,0,0,0-.11l-.2.08.15-.11h0v-.06h0l-.16.14c-.24.19-.4.27-.59.4a5.21,5.21,0,0,0-.52.41,5.38,5.38,0,0,0-.52.55,6.3,6.3,0,0,0-.51.76Z"/><path class="cls-40" d="M1208.91,41.32a17.31,17.31,0,0,1-.79,5.25c-.22-8-7.73-17-16.95-17s-16.73,9-17,17a17.75,17.75,0,1,1,34.7-5.25Z"/><path class="cls-53" d="M1208.12,46.57a17.75,17.75,0,0,1-33.91,0c0-17,7.73-17,17-17S1208.12,29.6,1208.12,46.57Z"/><path class="cls-53" d="M1248.63,71.64a7.73,7.73,0,0,1-7.71,7.63h-5.76V63.83h5.48A8,8,0,0,1,1248.63,71.64Z"/><path class="cls-53" d="M1147.17,63.83V79.27h-5.47a8,8,0,0,1-8-7.84,7.72,7.72,0,0,1,7.73-7.6Z"/><path class="cls-54" d="M1235.16,63.83V79.27h-21.69a3.86,3.86,0,0,0-3.86,3.73l-.79,23.56h-35.31L1172.72,83a3.86,3.86,0,0,0-3.86-3.73h-21.69V63.83Z"/><path class="cls-55" d="M1208.82,106.56v.5l-.35,10.57v40.76h-14.6v-38a2.75,2.75,0,0,0-1.41-2.47,3,3,0,0,0-1.27-.3,2.58,2.58,0,0,0-1.52.47,2.85,2.85,0,0,0-1.16,2.39v10.06h0v27.84h-14.6V117.63l-.36-10.57v-.5Z"/><path class="cls-51" d="M1188.49,158.39V162a4.74,4.74,0,0,1-4.74,4.74h-5.12a4.74,4.74,0,0,1-4.74-4.74v-3.57Z"/><path class="cls-51" d="M1208.45,158.39V162a4.74,4.74,0,0,1-4.74,4.74h-5.12a4.74,4.74,0,0,1-4.74-4.74v-3.57Z"/><path class="cls-53" d="M1199.32,64.45c0,2.35-3.65,4.25-8.15,4.25s-8.16-1.9-8.16-4.25a2.16,2.16,0,0,1,.09-.62h16.13A2.16,2.16,0,0,1,1199.32,64.45Z"/><polyline class="cls-56" points="1179.19 63.84 1191.26 82.05 1203.15 63.8"/><rect class="cls-57" x="1187.16" y="80.5" width="8.2" height="11.27"/><line class="cls-58" x1="1150.07" y1="65.27" x2="1150.07" y2="77.83"/><line class="cls-58" x1="1156.44" y1="65.27" x2="1156.44" y2="77.83"/><line class="cls-58" x1="1232.25" y1="65.27" x2="1232.25" y2="77.82"/><line class="cls-58" x1="1226.09" y1="65.27" x2="1226.09" y2="77.83"/><line class="cls-58" x1="1174.62" y1="101.14" x2="1207.71" y2="101.14"/><line class="cls-58" x1="1174.52" y1="95.82" x2="1207.8" y2="95.82"/><line class="cls-56" x1="1173.07" y1="93.55" x2="1173.41" y2="103.66"/><line class="cls-56" x1="1209.26" y1="93.38" x2="1208.9" y2="104.31"/><path class="cls-59" d="M1191.94,82.74l.21.1a1.24,1.24,0,0,0,.1-.2,1.17,1.17,0,0,0,0-1,.59.59,0,0,0-.24-.23.48.48,0,0,0-.29,0c-.17,0-.24.22-.32.39a2.85,2.85,0,0,0-.11.39,2,2,0,0,1-.09.33.11.11,0,0,1-.08.1.18.18,0,0,1-.2,0c-.2-.1-.16-.53-.15-.6a1.28,1.28,0,0,1,.18-.54l-.2-.12h0a1.46,1.46,0,0,0-.19.82,1,1,0,0,0,.08.38.53.53,0,0,0,.17.25.43.43,0,0,0,.33.08.38.38,0,0,0,.29-.18.85.85,0,0,0,.09-.22,1.53,1.53,0,0,1,.11-.47.54.54,0,0,1,0-.18.21.21,0,0,1,.16-.17c.09,0,.22.11.24.13a.46.46,0,0,1,.08.19,1,1,0,0,1,0,.49A1.06,1.06,0,0,1,1191.94,82.74Z"/><ellipse class="cls-59" cx="1192.26" cy="84.96" rx="0.17" ry="0.2"/><rect class="cls-59" x="1190.51" y="84.81" width="1.34" height="0.29"/><path class="cls-59" d="M1190.08,89h0V83.34h.61a.87.87,0,0,0-.14.9.68.68,0,0,0,.26.32.56.56,0,0,0,.28.1.69.69,0,0,0,.48-.13.78.78,0,0,0,.29-.46,1.06,1.06,0,0,0,0-.5.39.39,0,0,0-.13-.2h.16v-.26h-2V89h0c0,.07.06.1.12.1S1190.08,89.08,1190.08,89Zm1.56-5.15a.5.5,0,0,1-.47.51.52.52,0,0,1,0-1,.51.51,0,0,1,.47.5Z"/><path class="cls-59" d="M1191.1,86.46v.32h.13a.79.79,0,0,0,.51-.3.82.82,0,0,0,0-.83.64.64,0,0,0-.25-.31.71.71,0,0,0-.57-.07.79.79,0,0,0-.46.56.9.9,0,0,0,.2.86l.17-.17-.08-.12a.7.7,0,0,1,0-.63.41.41,0,0,1,.18-.19h.15A6.43,6.43,0,0,1,1191.1,86.46Zm.19-.92c.21,0,.36.21.36.48s-.15.48-.36.48Z"/><rect class="cls-59" x="1190.5" y="86.93" width="1.88" height="0.3"/><path class="cls-59" d="M1191.52,88.71a.48.48,0,0,0,.28-.28,1.14,1.14,0,0,0-.11-1l-.19.11.09.18a1,1,0,0,1,.05.3.39.39,0,0,1-.05.28.41.41,0,0,1-.31.14v-.69a.58.58,0,0,0-.12-.25.3.3,0,0,0-.23-.11.46.46,0,0,0-.34.19.74.74,0,0,0-.08.48.7.7,0,0,0,.15.4h-.14a1.22,1.22,0,0,1,0,.27h.92Zm-.55-.26c-.16,0-.29-.27-.29-.45h0c0-.17.09-.31.19-.31h0a.22.22,0,0,1,.22.22v.55Z"/><path class="cls-59" d="M1191.45,89.46a.34.34,0,0,1,.2,0,.48.48,0,0,1,.19.09,1.67,1.67,0,0,1,.31.34H1192a.72.72,0,0,1,.2.09.53.53,0,0,1,.11.21h-.17a.45.45,0,0,1,.24.14l.07.13a1.15,1.15,0,0,1,.07.36l-.14-.09.11.13h-.08l.08.13-.07-.06a2.11,2.11,0,0,1-.21-.31l-.21-.33a2.86,2.86,0,0,0-.28-.4,2.93,2.93,0,0,0-.42-.37c-.16-.11-.28-.19-.63-.39h0a.66.66,0,0,1,.28,0h.23l.18.09a1,1,0,0,1,.25.22h-.12Z"/><path class="cls-59" d="M1190.58,89h.06l.18.11a3.77,3.77,0,0,1,.52.37l.18.16a.93.93,0,0,0,.14.14,4.58,4.58,0,0,1,.34.43c0,.07,0,.06.14.22s.19.28.2.27h0l-.08-.11-.07-.11-.1-.15s-.08-.14-.17-.27l-.19-.25a1.47,1.47,0,0,0-.17-.16,2,2,0,0,0-.27-.22l-.24-.18-.22-.13-.16-.1h0Z"/><rect class="cls-59" x="1190.51" y="89.02" width="0.12" height="0.05" rx="0.02" transform="translate(646.93 1151.99) rotate(-67.19)"/><path class="cls-59" d="M1190.4,89h0v-.09h-.15c-.09,0,.06.06.06.07h0Zm0,0Z"/><path class="cls-59" d="M1190.64,89.11a.09.09,0,0,0,0,.07v.16c.08.2.17.37.17.37v-.17a1.31,1.31,0,0,1,0-.28v.21a2.08,2.08,0,0,0,.25.52v-.15a1,1,0,0,1,0-.24,1,1,0,0,0,0,.24,2,2,0,0,0,.1.26c.07.12.11.16.16.18h.06v-.09a1.7,1.7,0,0,1,0-.45,2,2,0,0,0,0,.35,1.26,1.26,0,0,0,.1.33c0,.09.1.15.13.2v-.09a.21.21,0,0,0,0,.11v.07a.32.32,0,0,0,.22.13v-.06a.89.89,0,0,1,0-.23v.27a.47.47,0,0,0,.1.1v0a.07.07,0,0,0,.09,0,.77.77,0,0,1-.07-.16l.08.12h0l-.1-.12a4.37,4.37,0,0,1-.31-.44,4.08,4.08,0,0,0-.31-.39,3.08,3.08,0,0,0-.42-.39,4.49,4.49,0,0,0-.57-.4Z"/><path class="cls-60" d="M961.77,41.48a17.72,17.72,0,1,1-17.72-17.72h0A17.74,17.74,0,0,1,961.77,41.48Z"/><path class="cls-26" d="M962.87,120l-1.4,37.51H946.73v-37a2.75,2.75,0,0,0-1.41-2.47,3,3,0,0,0-1.27-.3,2.67,2.67,0,0,0-1.52.47,2.9,2.9,0,0,0-1.16,2.39v37h-14.8l-1.84-37c-.09-1.87-.12-3.73-.09-5.6l.06-2.92L944,110.67l18.8,1.36.06,3.41C962.94,116.92,962.93,118.46,962.87,120Z"/><path class="cls-61" d="M926.58,157.52h14.8V162a4.75,4.75,0,0,1-4.73,4.74h-5.12a4.74,4.74,0,0,1-4.74-4.74Z"/><path class="cls-61" d="M946.73,157.52h14.74l-.16,4.44a4.74,4.74,0,0,1-4.74,4.74h-5.11a4.75,4.75,0,0,1-4.73-4.74Z"/><path class="cls-62" d="M989.76,64V79.38H964.14a3.85,3.85,0,0,0-3.86,3.72l2.12,20.53c.24,2.33.38,4.68.42,7V112l-18.8-.59-19.34.59v-1.24q.06-3.56.43-7.1l2.11-20.49a3.85,3.85,0,0,0-3.85-3.72h-25V64Z"/><path class="cls-60" d="M894.37,64h4V79.38h-3.69a8,8,0,0,1-8-7.83,7.79,7.79,0,0,1,2.26-5.33A7.66,7.66,0,0,1,894.37,64Z"/><path class="cls-60" d="M1001.44,71.76a7.71,7.71,0,0,1-7.7,7.62h-4V64h3.7A7.94,7.94,0,0,1,1001.44,71.76Z"/><line class="cls-56" x1="963.38" y1="107.13" x2="963.31" y2="107.13"/><line class="cls-56" x1="924.24" y1="107.13" x2="924.18" y2="107.13"/><path class="cls-63" d="M941.76,78.9c-1,1.33-2.24,3-5,3a5.66,5.66,0,0,1-5-3"/><path class="cls-63" d="M956.34,78.9a5.76,5.76,0,0,1-5,3,5.66,5.66,0,0,1-5-3"/><g class="cls-64"><g class="cls-64"><path class="cls-4" d="M949.22,72.09l.14-.31-.29-.14a1.72,1.72,0,0,0-1.44,0,.8.8,0,0,0-.33.35.61.61,0,0,0,0,.42c.07.24.32.35.57.47a2.73,2.73,0,0,0,.56.15,2.9,2.9,0,0,1,.48.14c.11.06.14.09.15.12a.3.3,0,0,1,0,.29c-.16.29-.77.23-.88.22a1.82,1.82,0,0,1-.78-.27l-.18.3.08,0a2,2,0,0,0,1.19.28,1.74,1.74,0,0,0,.55-.11,1,1,0,0,0,.36-.26.68.68,0,0,0,.12-.48.57.57,0,0,0-.27-.42.84.84,0,0,0-.31-.12c-.26-.08-.44-.1-.69-.16a1.12,1.12,0,0,1-.26-.08.32.32,0,0,1-.24-.23c0-.12.15-.33.18-.35a.58.58,0,0,1,.28-.12,1.33,1.33,0,0,1,.71.07,2,2,0,0,1,.34.14"/><path class="cls-4" d="M952.74,71.62a.29.29,0,0,1-.3.25.25.25,0,0,1,0-.5.29.29,0,0,1,.3.25"/><rect class="cls-4" x="952.22" y="72.21" width="0.42" height="1.95"/><path class="cls-4" d="M958.33,74.79h-8.21V73.9a1.62,1.62,0,0,0,.5.27,1.32,1.32,0,0,0,.81-.06,1,1,0,0,0,.47-.38,1.12,1.12,0,0,0,.14-.4,1.06,1.06,0,0,0-.19-.71,1.14,1.14,0,0,0-.67-.42,1.5,1.5,0,0,0-.73,0,.7.7,0,0,0-.29.19v-.23h-.37V75.1h8.6c.1,0,.14-.08.14-.18s0-.18-.14-.18m-7.49-2.27a.74.74,0,0,1,.75.68.76.76,0,0,1-.87.63.78.78,0,0,1-.63-.63.74.74,0,0,1,.75-.68"/><path class="cls-4" d="M954.62,73.3h.47a.61.61,0,0,0,0-.19,1.13,1.13,0,0,0-.43-.73,1.27,1.27,0,0,0-1.21-.08,1,1,0,0,0-.45.36,1,1,0,0,0-.1.83,1.16,1.16,0,0,0,.81.67,1.43,1.43,0,0,0,.82,0,1.41,1.41,0,0,0,.42-.26l-.23-.25-.18.11a1.06,1.06,0,0,1-.92,0,.64.64,0,0,1-.28-.26v-.09a.29.29,0,0,1,0-.13h1.34m-1.4-.28c0-.31.31-.52.7-.52s.7.21.7.52Z"/><rect class="cls-4" x="955.31" y="71.44" width="0.43" height="2.73"/><path class="cls-4" d="M957.9,72.69a.93.93,0,0,0-.42-.41,1.68,1.68,0,0,0-1.43.17c.05.09.11.18.16.28a1.26,1.26,0,0,1,.26-.13,1.57,1.57,0,0,1,.43-.09.65.65,0,0,1,.41.08.59.59,0,0,1,.2.45h-1a.7.7,0,0,0-.37.17.51.51,0,0,0-.17.34.61.61,0,0,0,.28.49,1,1,0,0,0,.71.11,1,1,0,0,0,.57-.21v.2h.4V72.69m-.38.81c0,.23-.4.42-.66.42h0c-.25,0-.45-.13-.45-.28h0a.32.32,0,0,1,.31-.33h.81Z"/><path class="cls-4" d="M959,72.8a.48.48,0,0,1,0-.29.72.72,0,0,1,.13-.28,2.11,2.11,0,0,1,.5-.44.89.89,0,0,0,0,.23,1.11,1.11,0,0,1,.14-.29.75.75,0,0,1,.31-.15l-.07.25a.7.7,0,0,1,.21-.35.69.69,0,0,1,.19-.1,1.56,1.56,0,0,1,.52-.11,2.39,2.39,0,0,0-.13.21l.18-.17v.13l.19-.13-.09.11a1.82,1.82,0,0,1-.45.31L960,72a3.8,3.8,0,0,0-.57.42,2.85,2.85,0,0,0-.54.61c-.21.3-.4.6-.58.92h0a.9.9,0,0,1,0-.4v-.12s0,.11.06.13a1,1,0,0,1,0-.35.66.66,0,0,1,.12-.27,1.42,1.42,0,0,1,.33-.36.25.25,0,0,0,0,.17l.06.08"/><path class="cls-4" d="M958.31,74.06h0V74a2.26,2.26,0,0,1,.16-.26,5.91,5.91,0,0,1,.54-.77,2.62,2.62,0,0,1,.22-.25l.22-.21a4.17,4.17,0,0,1,.62-.49l.31-.2c.37-.24.41-.28.4-.29h0l-.17.11-.15.1-.22.14s-.21.12-.39.25a2.54,2.54,0,0,0-.36.29l-.25.23c-.13.15-.21.26-.31.39l-.25.36-.2.32s-.13.22-.14.22h0"/><path class="cls-4" d="M958.32,74.32v-.06l-.12-.05h0v.22a.17.17,0,0,1,.11-.09h0v-.12m-.06,0h0"/><path class="cls-4" d="M958.48,74h.1l.22-.07a2.65,2.65,0,0,0,.54-.25.59.59,0,0,0-.24.07,1.4,1.4,0,0,1-.41,0l.13,0a.54.54,0,0,1,.18,0,2.67,2.67,0,0,0,.74-.36h-.21a1,1,0,0,1-.34,0,2,2,0,0,0,.34-.06,2.5,2.5,0,0,0,.38-.15c.18-.09.24-.15.27-.22v-.09h-.13a1.83,1.83,0,0,1-.66,0,2.26,2.26,0,0,0,.52,0,2,2,0,0,0,.47-.15,1.17,1.17,0,0,0,.3-.19h-.18l.24-.08h0l.1-.06A.58.58,0,0,0,961,72h-.09a1,1,0,0,1-.34,0h.17a.79.79,0,0,0,.22-.06.43.43,0,0,0,.16-.14H961c.1,0,.14,0,.16-.07s0,0,0-.12-.22.1-.23.09,0,0,.17-.11h0v-.07h0l-.18.15c-.26.21-.43.3-.64.45a4.81,4.81,0,0,0-.57.44,4.12,4.12,0,0,0-.57.61,6.77,6.77,0,0,0-.57.83Z"/></g></g><line class="cls-56" x1="898.34" y1="80.12" x2="898.34" y2="79.38"/><line class="cls-56" x1="898.34" y1="63.96" x2="898.34" y2="63.4"/><line class="cls-56" x1="989.76" y1="80.12" x2="989.76" y2="79.38"/><line class="cls-56" x1="989.76" y1="63.96" x2="989.76" y2="63.4"/><polygon class="cls-65" points="949.66 64.78 944.05 73.13 938.33 64.78 949.66 64.78"/><line class="cls-66" x1="949.77" y1="64.63" x2="949.66" y2="64.78"/><line class="cls-66" x1="938.33" y1="64.78" x2="938.22" y2="64.63"/><line class="cls-66" x1="924.71" y1="111.93" x2="924.13" y2="112.07"/><path class="cls-67" d="M965.63,62.75c.18,6.68-.5,15.68.09,22a.75.75,0,0,1-.67.82.71.71,0,0,1-.49-.12c-1.49-1-3-3.37-4.47-3.3S957,85,955.48,86.06a.74.74,0,0,1-1-.17.68.68,0,0,1-.14-.41c-.62-12.32,3.19-28.57,2.81-40.85a2.7,2.7,0,0,0-2-2.52c-6.55-1.93-13.4-5.83-16.82-10.94a2.77,2.77,0,0,0-4.73.26,20.65,20.65,0,0,0-2.64,13c1.32,10.82,1.66,6,2.17,15,.35,6.14-.41,16.62-2.57,27.64a.5.5,0,0,1-.6.4.48.48,0,0,1-.29-.17c-1.18-1.4-2.21-6.13-3.79-6.15s-4,2.86-6.13,3.59a.51.51,0,0,1-.65-.31.5.5,0,0,1,0-.34c7.58-21.49,6.89-23.88,3.81-31.54a20.49,20.49,0,0,1-1.83-8.26c0-8.7,6.26-19.38,16.92-22.82,7.67-2.48,17.47-1.14,23.08,4.85,1.69,1.81,5.77,7.61,5.56,12.66C966.39,45.14,965.19,45.62,965.63,62.75Z"/><line class="cls-56" x1="941.74" y1="157.52" x2="941.38" y2="157.52"/><line class="cls-56" x1="926.58" y1="157.52" x2="926.11" y2="157.52"/><line class="cls-56" x1="962.03" y1="157.52" x2="961.47" y2="157.52"/><line class="cls-56" x1="946.73" y1="157.52" x2="946.39" y2="157.52"/><line class="cls-66" x1="944.1" y1="72.13" x2="944.1" y2="111.61"/><line class="cls-68" x1="945.12" y1="109.98" x2="945.12" y2="71.58"/><line class="cls-68" x1="942.98" y1="109.97" x2="942.98" y2="71.57"/><line class="cls-63" x1="942.76" y1="71.24" x2="944.16" y2="73.29"/><line class="cls-63" x1="945.63" y1="70.78" x2="943.87" y2="73.38"/><path class="cls-69" d="M939.68,104.18h-9.39a.6.6,0,0,1-.65-.55v-.06l.85-8.4a.63.63,0,0,1,.65-.51h8.54Z"/><path class="cls-69" d="M948.31,104.18h9.39a.6.6,0,0,0,.65-.53v-.08l-.85-8.4a.63.63,0,0,0-.65-.51h-8.54Z"/><path class="cls-70" d="M1084,41.32a17.75,17.75,0,1,1-17.76-17.74h0A17.75,17.75,0,0,1,1084,41.32Z"/><path class="cls-71" d="M1110.42,63.83V79.27h-21.83a3.86,3.86,0,0,0-3.86,3.73l-.81,24.06-.11,3.26h-35l-.11-3.26L1047.84,83a3.86,3.86,0,0,0-3.86-3.73h-21.83V63.83Z"/><path class="cls-70" d="M1022.15,63.83V79.27h-5.33a8,8,0,0,1-8-7.84,7.72,7.72,0,0,1,7.72-7.6Z"/><path class="cls-72" d="M1083.81,110.32l-.24,7.31v39.31H1069V120.4a2.75,2.75,0,0,0-1.41-2.47,3,3,0,0,0-1.27-.3,2.58,2.58,0,0,0-1.52.47,2.85,2.85,0,0,0-1.16,2.39v36.45H1049V117.63l-.25-7.31Z"/><path class="cls-26" d="M1049,156.94h14.6v5a4.75,4.75,0,0,1-4.74,4.74h-5.12A4.74,4.74,0,0,1,1049,162Z"/><path class="cls-26" d="M1083.57,156.94v5a4.74,4.74,0,0,1-4.74,4.74h-5.12A4.74,4.74,0,0,1,1069,162v-5Z"/><path class="cls-70" d="M1123.75,71.64a7.72,7.72,0,0,1-7.72,7.63h-5.61V63.83h5.34A8,8,0,0,1,1123.75,71.64Z"/><line class="cls-73" x1="1083.99" y1="107.06" x2="1083.93" y2="107.06"/><line class="cls-73" x1="1048.65" y1="107.06" x2="1048.59" y2="107.06"/><path class="cls-74" d="M1047.52,45.73a12,12,0,0,1-.63-3.36,19.49,19.49,0,0,1-.23-4.18,18.63,18.63,0,0,1,.4-2.68,9.8,9.8,0,0,0,0-2.65c-.09-1.28-.19-1.44-.31-2.83-.16-1.81-.24-2.73.12-3.22.65-.88,1.66-.44,2.27-1.32s-.24-1.63.19-2.83c.5-1.4,1.91-1.09,3.84-3.09,1-1,.77-1.26,1.7-2,.41-.34,2.33-1.83,3.65-1.2.64.3.6.83,1.2,1,.83.23,1.29-.65,2.39-1.07,2-.79,3.06,1.15,6.3.81a10.25,10.25,0,0,1,2.27-.25,14.83,14.83,0,0,1,3,.76,15.91,15.91,0,0,1,2.14.63c1.42.92,1.28,2.45,2.58,2.83.49.14.73,0,1.14.25.76.48.67,1.71.88,1.7s.43.22.8.09a.7.7,0,0,1,.86.34c.49.65.18.79.85,1.76,1.2,1.76.44,2,.4,2.33-.15,1.17-.41.84-.32,2.4,0,.83.53,1.29.94,2.72a21.56,21.56,0,0,1,.94,3.25,25.62,25.62,0,0,0,1,3.85c.42,1.63-.24,2.13-1,4.55a.49.49,0,0,1-.62.31.54.54,0,0,1-.18-.11c-.62-.54-1.6-1-1.67-2.51a20.36,20.36,0,0,0-.84-4.9c-.91-4.27-.68-3.13-2.5-5.07-2.19-2.33-5.68-2.28-6.8-2.27a26.69,26.69,0,0,0-7.11.93c-3.5.73-4,1.3-6.85,1.19a9,9,0,0,0-3.61.84,7,7,0,0,0-3.73,4.85,17,17,0,0,0-.71,5.63,12.07,12.07,0,0,0,1,4c.81,2-1.78,2.93-2.93.83A12,12,0,0,1,1047.52,45.73Z"/><path class="cls-74" d="M1048.25,48.06c-.06,1.9,4.58,8.92,9.18,10.58,2.4.86,8.5,3.32,15.51.77,5-1.84,9.76-6.2,11.23-10.87,0-.1,3.43-10.27-.14-7.56-2.37,1.8-1.24,2.6-3.94,7.79a17.33,17.33,0,0,1-4.37,5.88c-6.07,4.4-14.34,2-18.47-.09-3.23-1.62-6.18-8.54-7.56-8.27C1048.58,46.51,1048.29,46.65,1048.25,48.06Z"/><path class="cls-74" d="M1063.42,58.3l.45-4a1.5,1.5,0,0,1,1.49-1.35h2.83a1.51,1.51,0,0,1,1.5,1.35l.44,4Z"/><path class="cls-75" d="M1058,55.5c.12-.66,0-4.23,2.77-6.19,3-2.13,7.24-1.64,8.11-1.47.49.09,5.75.63,6.74,4,.17.57.83,3.48.82,3.82"/><line class="cls-56" x1="1022.15" y1="79.62" x2="1022.15" y2="79.27"/><line class="cls-56" x1="1022.15" y1="63.83" x2="1022.15" y2="63.52"/><line class="cls-56" x1="1110.42" y1="79.56" x2="1110.42" y2="79.27"/><line class="cls-56" x1="1110.42" y1="63.83" x2="1110.42" y2="63.46"/><line class="cls-56" x1="1084.16" y1="110.32" x2="1083.81" y2="110.32"/><line class="cls-56" x1="1048.76" y1="110.32" x2="1048.35" y2="110.32"/><line class="cls-56" x1="1064.21" y1="156.94" x2="1063.61" y2="156.94"/><line class="cls-56" x1="1049.01" y1="156.94" x2="1048.39" y2="156.94"/><line class="cls-56" x1="1084.16" y1="156.94" x2="1083.57" y2="156.94"/><line class="cls-56" x1="1068.97" y1="156.94" x2="1068.34" y2="156.94"/><circle class="cls-76" cx="1057.07" cy="91.13" r="0.73"/><circle class="cls-76" cx="1075.54" cy="91.13" r="0.73"/><circle class="cls-76" cx="1107.14" cy="69.77" r="0.63"/><circle class="cls-76" cx="1025.44" cy="69.77" r="0.63"/><path class="cls-4" d="M1049.67,72.87l.15-.32a1.3,1.3,0,0,0-.31-.16,1.82,1.82,0,0,0-1.53.06.83.83,0,0,0-.36.38.66.66,0,0,0,0,.44c.09.26.35.38.61.5a2.64,2.64,0,0,0,.61.17,2.46,2.46,0,0,1,.51.15c.11.06.14.09.16.13a.32.32,0,0,1,0,.3c-.16.31-.82.25-.93.24a1.92,1.92,0,0,1-.84-.29l-.19.32h.09a2.1,2.1,0,0,0,1.27.3,1.52,1.52,0,0,0,.59-.12.79.79,0,0,0,.38-.27.68.68,0,0,0-.09-1l-.06,0a1.4,1.4,0,0,0-.34-.13c-.28-.08-.47-.1-.74-.16a1.31,1.31,0,0,1-.28-.09.33.33,0,0,1-.25-.25c0-.14.16-.35.19-.37a.67.67,0,0,1,.3-.13,1.51,1.51,0,0,1,.76.08A1.66,1.66,0,0,1,1049.67,72.87Z"/><ellipse class="cls-4" cx="1053.12" cy="72.37" rx="0.32" ry="0.27"/><rect class="cls-4" x="1052.89" y="73.01" width="0.45" height="2.09"/><path class="cls-4" d="M1059.43,75.77h-8.8v-1a1.2,1.2,0,0,0,.53.29A1.5,1.5,0,0,0,1052,75a1,1,0,0,0,.64-1.26,1,1,0,0,0-.19-.34,1.14,1.14,0,0,0-.72-.44,1.47,1.47,0,0,0-.78,0,.64.64,0,0,0-.31.2l-.05.09v-.34h-.4v3.14h9.21c.1,0,.15-.08.15-.19S1059.53,75.77,1059.43,75.77Zm-8-2.43a.77.77,0,0,1,.8.72.81.81,0,0,1-1.61,0,.78.78,0,0,1,.79-.72Z"/><path class="cls-4" d="M1055.45,74.17h.51V74a1.16,1.16,0,0,0-.45-.78,1.37,1.37,0,0,0-1.3-.09,1,1,0,0,0-.59,1.28,1.23,1.23,0,0,0,.87.71,1.47,1.47,0,0,0,.88,0,1.48,1.48,0,0,0,.45-.28l-.25-.27a1.37,1.37,0,0,1-.2.13,1.17,1.17,0,0,1-1,0,.79.79,0,0,1-.31-.29v-.09a.29.29,0,0,1,0-.13h1.39Zm-1.43-.29c0-.33.33-.56.75-.56s.75.23.75.56Z"/><rect class="cls-4" x="1056.19" y="72.19" width="0.46" height="2.93"/><path class="cls-4" d="M1059,73.52a.84.84,0,0,0-.45-.44,1.83,1.83,0,0,0-1.53.18c.06.1.12.2.17.3a1.55,1.55,0,0,1,.29-.14,1.17,1.17,0,0,1,.45-.09.75.75,0,0,1,.44.08.62.62,0,0,1,.22.48h-1.1a.7.7,0,0,0-.39.18.5.5,0,0,0-.18.36.63.63,0,0,0,.3.53,1.25,1.25,0,0,0,.76.12,1.23,1.23,0,0,0,.61-.23v.22h.42V73.68A.43.43,0,0,0,1059,73.52Zm-.41.86c0,.25-.42.45-.69.45h0c-.26,0-.48-.14-.48-.3h0a.34.34,0,0,1,.34-.34h.85Z"/><path class="cls-4" d="M1060.13,73.63a.55.55,0,0,1,0-.31.83.83,0,0,1,.14-.3,2.38,2.38,0,0,1,.53-.47v.25a.89.89,0,0,1,.15-.31.65.65,0,0,1,.32-.16l-.07.27a1,1,0,0,1,.22-.38l.2-.11a2.14,2.14,0,0,1,.56-.11,1.64,1.64,0,0,0-.14.22l.2-.17-.06.13.21-.14-.1.12a2.07,2.07,0,0,1-.48.33l-.51.31a3.92,3.92,0,0,0-.62.45,3,3,0,0,0-.57.66,7.93,7.93,0,0,0-.62,1h0a1.09,1.09,0,0,1,0-.44v-.12s0,.12.06.13a1.15,1.15,0,0,1,0-.37,1,1,0,0,1,.14-.28,1.41,1.41,0,0,1,.34-.39.28.28,0,0,0,0,.18A.17.17,0,0,0,1060.13,73.63Z"/><path class="cls-4" d="M1059.4,75h.06c.06,0,0,0,0-.09a2.61,2.61,0,0,1,.17-.28,6.74,6.74,0,0,1,.58-.82s.15-.18.24-.27l.23-.22a6.66,6.66,0,0,1,.66-.53c.11-.07.1,0,.34-.21s.44-.3.43-.32h-.06l-.18.12-.16.11-.24.14s-.22.13-.42.27a4.08,4.08,0,0,0-.39.31l-.26.25a3.39,3.39,0,0,0-.33.42,2.7,2.7,0,0,0-.27.39,2.39,2.39,0,0,0-.21.34,1.88,1.88,0,0,1-.16.23h0A.9.9,0,0,0,1059.4,75Z"/><rect class="cls-4" x="1059.41" y="74.94" width="0.08" height="0.18" rx="0.03" transform="translate(579.56 1022.54) rotate(-67.19)"/><path class="cls-4" d="M1059.42,75.26a.06.06,0,0,1,0-.06l-.13-.06h0v.23c.06-.08.09-.09.12-.09h0v-.06S1059.41,75.29,1059.42,75.26Zm-.07,0Z"/><path class="cls-4" d="M1059.58,74.89h.11l.24-.08a3,3,0,0,0,.57-.27.59.59,0,0,0-.25.08,1.09,1.09,0,0,1-.44,0h.33a2.83,2.83,0,0,0,.8-.39.86.86,0,0,1-.23.06h-.36a2.29,2.29,0,0,0,.36-.07,2,2,0,0,0,.4-.16c.2-.1.26-.16.29-.23a.17.17,0,0,0,0-.1h-.13a2.06,2.06,0,0,1-.7,0,2.53,2.53,0,0,0,.55,0,1.82,1.82,0,0,0,.5-.16,2.14,2.14,0,0,0,.32-.2h-.19l.25-.08h0l.11-.07a.52.52,0,0,0,.2-.34h-.09a1.15,1.15,0,0,1-.37,0h.18a.71.71,0,0,0,.24-.06.65.65,0,0,0,.17-.16h-.31l.17-.06c.09,0,.14,0,.17-.07a.15.15,0,0,0,0-.13.64.64,0,0,1-.24.1l.17-.12a.13.13,0,0,0,.07-.06h0l-.06-.08h-.06l-.19.16a8.29,8.29,0,0,1-.68.48,4.11,4.11,0,0,0-.62.48,5.34,5.34,0,0,0-.61.65,7.78,7.78,0,0,0-.61.89Z"/><line class="cls-77" x1="1065.31" y1="68.15" x2="1065.31" y2="111.27"/><line class="cls-77" x1="1067.26" y1="68.15" x2="1067.26" y2="111.27"/><path class="cls-66" d="M1062.07,93.24v13.22h-10V93.25l3.43.47a11.27,11.27,0,0,0,3.07,0Z"/><line class="cls-66" x1="1056.69" y1="68.2" x2="1056.69" y2="77.64"/><line class="cls-66" x1="1075.89" y1="68.2" x2="1075.89" y2="77.64"/><path class="cls-46" d="M1062.68,87.35v5.81l-.61.08-3.5.48a11.27,11.27,0,0,1-3.07,0l-3.43-.47-.67-.09V87.35Z"/><path class="cls-66" d="M1080.54,93.38V106.6h-10V93.39l3.43.47a11.27,11.27,0,0,0,3.07,0Z"/><path class="cls-46" d="M1081.14,87.49V93.3l-.6.08-3.51.48a11.27,11.27,0,0,1-3.07,0l-3.43-.47-.67-.09V87.49Z"/><rect class="cls-46" x="1049.77" y="123.45" width="3.62" height="20.56"/><rect class="cls-46" x="1079.18" y="123.45" width="3.62" height="20.56"/><path class="cls-46" d="M1052.7,64.28h27.18v1.33a2.75,2.75,0,0,1-2.75,2.75h-21.68a2.75,2.75,0,0,1-2.75-2.75V64.28Z"/><line class="cls-46" x1="1104.64" y1="63.53" x2="1104.64" y2="80.39"/><line class="cls-46" x1="1027.94" y1="63.35" x2="1027.94" y2="80.59"/></g></g></svg>