<svg id="Layer_1" data-name="Layer 1" xmlns="http://www.w3.org/2000/svg" viewBox="0 0 1000 1000"><defs><style>.cls-1{fill:#fff;stroke:#366e63;stroke-miterlimit:10;stroke-width:80px;}.cls-2{fill:#366e63;}</style></defs><circle class="cls-1" cx="500" cy="500" r="458"/><path class="cls-2" d="M376.8,480.38a121,121,0,0,1-1.46-54c2.94-14.32,8.82-29.09,24.82-51.83,29-41.27,92.15-81.94,92.15-81.94s-2.58,12.2-6.27,43.54c8-20.21,10.66-37.74,26-53.86,20.12-21.19,56.35-28.86,56.35-28.86S555.54,300,556.13,300.25s9.94-40,39-64.44c3.81-3.22,12.93-10.43,34.31-19.71,20.35-8.84,53.29-16.75,97.5-20.1-18.86,26.77-24.63,38.64-24.63,38.64l34.92-30.08L726.3,227.2,763,203.61s0,7.52-16.79,20.52c-18.5,12.82-47.67,34.6-84.53,57.3-45.88,28.24-56.21,34.31-89,55.1-25.77,16.35-50.48,29.83-106.54,77.25-38.07,32.19-64.5,65.35-100,113.94-29.93,40.95-52.85,75.53-107.77,169.94-2.48,3.56-5.44,1-8.44-.64-2.85-1.54-3.44-5.45-3.71-7.42-7-51,2.22-75.74,2.22-75.74,1.91-5.09,8.13-17.36,8.13-17.36s3.53,42.94,4.13,43,4.52-47.5,4.52-47.5,4.75,21,11.44,24.11a175.86,175.86,0,0,1,5.57-64.22c6.44-23,16-38.77,23-50.13a252.39,252.39,0,0,1,60.52-66.82c-1.3,3.74-5.36,17,.74,31.18A41.22,41.22,0,0,0,376.8,480.38Z"/><path class="cls-2" d="M250.62,715.44c.74,2,2.87,2.83,7.1,4.44,5.61,2.13,8.41,3.19,10.66,2.22,3.85-1.68,5.68-8.63,4-16.88,9.64-16.22,18.36-30.89,30.39-48.6,33.88-49.87,55.09-91.08,100.25-141.51,6.89-7.69,26.81-31.51,42.06-47,5-5,24.93-25.25,40-39.51,46.55-44.18,92.11-75.15,115-90.57,19.29-13,16.5-10.17,58.6-37.74,68-44.5,75.67-52.16,74.59-54.16-.45-.85-2.7-1.07-9.87,1.1a30.57,30.57,0,0,0-8.61,4.24c-8.35,5.84-19.09,13.26-31.69,21.74-8.43,5.67-17.6,11.84-28.28,18.66-19.07,12.2-32.63,19.9-41.74,25.22-5.45,3.19-37.62,22.08-72.12,46.46-16.24,11.48-39.54,28.06-67.55,53.24-6.36,5.72-23.9,21.72-45,44.55C403.89,487.87,388,509.16,370,533.19c-13.18,17.61-28.66,38.29-47.05,67.41-22.53,35.67-33.8,53.51-36.28,59.29,0,0-23.89,39.56-26.84,41.3a22.11,22.11,0,0,0-6.35,5.89C252,709.07,249.53,712.5,250.62,715.44Z"/><rect class="cls-2" x="238.54" y="725.78" width="31.1" height="13.17" rx="4.12" transform="translate(303.84 -41.23) rotate(22.81)"/><path class="cls-2" d="M253.4,763c.5-2.69,1.9-6.46,5.87-10.66-7.7-3.35-15.45-6.69-23.15-10-1.71,6.93-2.84,8.25-2.84,8.25-2.65,3.19-4.05.93-8,4.86-1.13,1.13-3,3.7-5.52,8.48-2.34,4.48-6.31,9.26-.59,15.41,3.89,4.17,4.83,9.46,2.22,24.71,9.34-12.53,15.45-15.14,20-15.64,2.8-.31,4.2.66,6.81-2a20.81,20.81,0,0,0,5.14-10.89C254.25,767.58,252.5,767.7,253.4,763Zm-11.72,7.7-2.56,5.1a2,2,0,0,1-2.65.86l-5.1-2.57a1.94,1.94,0,0,1-.85-2.65l2.56-5.09a2,2,0,0,1,2.65-.86l5.1,2.57A1.94,1.94,0,0,1,241.68,770.69Z"/><path class="cls-2" d="M282.18,698.46a47.9,47.9,0,0,0,18.37-1.7c11.29-3.35,24.22-7.57,41.93-14.1,54.85-20.23,100.45-44.59,99.63-46.43-.49-1.12-17.74,7.6-44.82,14.51a283.83,283.83,0,0,1-74.8,8.71A205.46,205.46,0,0,1,378.91,643c14.85-2.19,50-16,138.66-66.74a266.85,266.85,0,0,1-102.86,12.57,357.59,357.59,0,0,0,63.2-11.28c30.23-8.26,49.93-17.92,69.65-27.74,34.65-17.24,45.38-28,50.62-41.27a53.27,53.27,0,0,0,3.55-16.12c-7.5,1.47-15.24,2.78-23.22,3.87-46.56,6.36-86.36.33-122.25-5.73,40.37-.69,71.29-2.36,95.81-7.49,27.41-5.74,55-11.71,88-28.06a297.32,297.32,0,0,0,54.49-34.82l-31.92,1,43.53-14.51L671.38,405a97.18,97.18,0,0,0,28.69-7.41,108.91,108.91,0,0,0,20-11.61c24.59-18.67,33.28-52.67,34.82-59-5.19,1.55-10.67,3-16.44,4.19a212.8,212.8,0,0,1-64.17,3.55c7.47-1.08,18.55-2.82,31.92-5.48,21.25-4.23,32.08-6.45,41.6-11.61,7.08-3.84,18.37-11.5,28.69-27.09q-9.81,1.6-19.66,3.23-17.34,2.86-34.51,5.8A227.51,227.51,0,0,1,752,289c16.86-4.75,25.51-5.07,29.66-11.93,2.22-3.64,3.81-10.21-1.29-22.25q-40.79,18.61-41.91,16.45c-.74-1.41,6.7-6.79,30.45-21A39.06,39.06,0,0,0,779.69,241l2-3.28-10.1-13.55a2.9,2.9,0,0,0-4-.61l-5.39,4c-9.81,9.24-7.41,6.79-9.81,9.24-7.56,6.86-18.82,16.85-32.89,28.37-48,39.35-79.88,56.6-119,82.87A1008.4,1008.4,0,0,0,494,430.51C456,464.58,433.28,491.06,387.94,544c-48,56.11-105.76,154.45-105.76,154.45Z"/></svg>